<svg xmlns="http://www.w3.org/2000/svg" width="545" height="731" viewBox="0 0 545 731" version="1.1"><path d="M 198.470 63.500 C 198.724 66.250, 199.250 71.875, 199.638 76 C 200.026 80.125, 200.391 84.684, 200.451 86.131 C 200.510 87.579, 201.104 89.420, 201.770 90.223 C 202.437 91.027, 202.874 91.870, 202.741 92.098 C 202.609 92.326, 203.257 91.616, 204.182 90.521 C 205.106 89.426, 206.202 88.869, 206.617 89.284 C 208.146 90.812, 209.905 97.530, 209.353 99.730 C 209.035 100.995, 209.242 102, 209.818 102 C 210.388 102, 211.561 103.419, 212.427 105.154 C 214.169 108.645, 214.452 110.397, 213.144 109.589 C 212.674 109.298, 212.501 110.172, 212.761 111.530 C 213.517 115.483, 211.202 114.389, 210.053 110.250 C 209.480 108.188, 209.009 105.713, 209.006 104.750 C 209.002 103.634, 208.230 103, 206.876 103 C 203.548 103, 204.608 113.268, 208.253 116.334 C 209.669 117.525, 211.122 119.513, 211.481 120.750 C 212.223 123.303, 215.480 123.798, 216.365 121.491 C 216.683 120.662, 216.507 118.832, 215.972 117.426 C 214.682 114.033, 214.691 114, 217 114 C 218.333 114, 219 114.667, 219 116 C 219 117.100, 219.477 118, 220.059 118 C 220.641 118, 220.840 118.450, 220.500 119 C 220.160 119.550, 220.359 120, 220.941 120 C 221.523 120, 222.048 119.438, 222.106 118.750 C 222.165 118.063, 222.277 116.645, 222.356 115.599 C 222.435 114.554, 223.290 113.581, 224.255 113.437 C 225.220 113.293, 225.750 113.595, 225.433 114.108 C 225.116 114.621, 226.014 116.416, 227.428 118.097 C 228.843 119.778, 230 120.839, 230 120.454 C 230 120.070, 230.604 120.256, 231.342 120.869 C 232.080 121.481, 232.969 121.697, 233.318 121.349 C 233.666 121, 234.638 121.284, 235.476 121.980 C 237.114 123.339, 240.510 121.634, 239.481 119.969 C 238.720 118.739, 245.974 119.574, 247.266 120.866 C 247.890 121.490, 249.173 122, 250.117 122 C 251.061 122, 251.983 122.426, 252.167 122.947 C 252.350 123.468, 254.061 124.167, 255.970 124.500 C 259.774 125.164, 260.420 125.559, 260.585 127.321 C 260.646 127.969, 260.764 129.255, 260.848 130.179 C 261.016 132.032, 263.616 135, 265.071 135 C 266.916 135, 265.947 129.089, 263.649 126.327 C 262.356 124.772, 261.053 121.624, 260.755 119.331 C 260.054 113.952, 254.185 98.092, 251.936 95.500 C 250.981 94.400, 249.982 92.600, 249.716 91.500 C 249.254 89.593, 249.227 89.598, 249.116 91.615 C 249.052 92.778, 249.843 94.803, 250.873 96.115 C 252.935 98.741, 254.191 107.002, 252.526 106.996 C 251.962 106.994, 249.972 106.061, 248.105 104.923 C 245.594 103.392, 244.516 103.166, 243.966 104.054 C 243.558 104.715, 242.701 104.934, 242.063 104.539 C 241.251 104.037, 241.215 103.446, 241.944 102.568 C 242.711 101.643, 242.353 101.026, 240.576 100.217 C 238.649 99.339, 238.054 99.418, 237.596 100.612 C 237.272 101.454, 237.453 101.838, 238.011 101.493 C 238.555 101.157, 239 101.584, 239 102.441 C 239 104.336, 237.398 104.487, 236.300 102.695 C 235.013 100.596, 228.655 97.296, 226.750 97.740 C 225.787 97.963, 225 97.664, 225 97.073 C 225 96.483, 226.012 95.948, 227.250 95.884 C 228.943 95.797, 229.067 95.655, 227.750 95.311 C 226.787 95.059, 226 94.381, 226 93.804 C 226 93.156, 225.432 93.227, 224.511 93.991 C 223.692 94.671, 223.269 95.626, 223.570 96.113 C 223.871 96.601, 223.528 97, 222.807 97 C 220.298 97, 212.350 88.456, 208.572 81.698 C 206.481 77.957, 204.534 75.133, 204.245 75.422 C 203.278 76.389, 200.001 69.047, 199.930 65.754 C 199.891 63.964, 199.443 61.600, 198.933 60.500 C 198.276 59.080, 198.142 59.949, 198.470 63.500 M 393.623 142.750 C 390.771 148.242, 368 154.904, 368 150.247 C 368 149.805, 364.962 149.518, 361.250 149.607 C 351.828 149.836, 349 149.232, 349 146.993 C 349 145.118, 344.632 141, 342.643 141 C 342.044 141, 342.555 141.701, 343.777 142.557 C 347.265 144.999, 346.461 146.919, 341 149.189 C 336.357 151.118, 335.481 152.238, 335.911 155.689 C 336.005 156.436, 335.118 156.708, 333.530 156.420 C 332.138 156.167, 331 156.420, 331 156.980 C 331 157.541, 330.100 158, 329 158 C 327.900 158, 327 158.464, 327 159.031 C 327 160.728, 329.962 161.338, 332.528 160.169 C 333.988 159.504, 335.156 159.443, 335.508 160.013 C 335.826 160.528, 338.205 160.732, 340.794 160.466 C 343.382 160.200, 344.963 160.240, 344.306 160.556 C 342.765 161.296, 343.786 164, 345.607 164 C 346.373 164, 347 164.450, 347 165 C 347 165.550, 348.125 166, 349.500 166 C 352.611 166, 352.759 167.759, 349.750 168.969 C 348.512 169.466, 348.089 169.902, 348.809 169.937 C 349.531 169.972, 349.801 170.513, 349.410 171.145 C 348.907 171.959, 349.539 172.087, 351.601 171.585 C 353.196 171.198, 356.524 170.663, 358.998 170.396 C 362.102 170.062, 364.426 169.041, 366.498 167.101 C 368.149 165.554, 370.288 164.013, 371.250 163.676 C 372.212 163.339, 373 162.572, 373 161.972 C 373 161.373, 373.463 161.168, 374.030 161.518 C 374.596 161.868, 376.734 160.781, 378.780 159.102 C 380.826 157.422, 384.577 154.350, 387.116 152.274 C 390.906 149.176, 397.183 140, 395.513 140 C 395.259 140, 394.409 141.238, 393.623 142.750 M 391.076 257.661 C 383.852 265.071, 384.197 263.504, 385.499 283 C 385.895 288.922, 385.758 291.045, 385.049 290 C 384.144 288.667, 384.022 288.667, 383.952 290 C 383.909 290.825, 383.421 290.375, 382.868 289 C 381.890 286.570, 381.822 286.554, 380.431 288.441 C 379.411 289.825, 378.996 289.969, 378.985 288.941 C 378.972 287.726, 378.818 287.735, 378 289 C 377.467 289.825, 377.024 291.642, 377.015 293.039 C 377.007 294.435, 376.093 297.355, 374.985 299.529 C 373.877 301.702, 373.226 304.146, 373.538 304.960 C 373.850 305.773, 373.789 306.122, 373.401 305.735 C 373.014 305.347, 372.077 306.226, 371.318 307.688 C 370.205 309.833, 370.187 310.501, 371.220 311.157 C 372.158 311.753, 372.033 311.973, 370.750 311.985 C 369.768 311.993, 368.972 311.232, 368.937 310.250 C 368.888 308.909, 368.662 309.026, 367.969 310.750 C 367.471 311.988, 366.487 313.032, 365.782 313.070 C 365.077 313.109, 365.390 313.488, 366.478 313.913 C 368.394 314.662, 368.385 314.723, 366.200 315.893 C 364.959 316.557, 364.149 317.433, 364.400 317.839 C 364.651 318.245, 362.645 321.035, 359.942 324.039 C 357.238 327.042, 355.021 330.023, 355.013 330.662 C 355.006 331.300, 354.438 331.740, 353.750 331.640 C 352.213 331.414, 351.574 330.066, 352.577 329.167 C 352.986 328.800, 352.954 329.132, 352.506 329.905 C 351.953 330.857, 352.068 331.076, 352.862 330.585 C 354.085 329.829, 353.501 328, 352.036 328 C 351.571 328, 350.033 329.974, 348.619 332.387 C 347.205 334.800, 344.436 337.725, 342.466 338.888 C 340.495 340.050, 339.082 341.339, 339.326 341.751 C 339.569 342.163, 338.470 343.766, 336.884 345.313 C 335.298 346.860, 334 347.872, 334 347.563 C 334 347.253, 333.178 347.822, 332.173 348.827 C 331.168 349.832, 328.201 351.693, 325.579 352.962 C 320.436 355.452, 316 359.080, 316 360.797 C 316 362.087, 312.198 363.485, 309.690 363.119 C 307.788 362.841, 305 364.627, 305 366.125 C 305 368.130, 312.442 373.859, 315.863 374.487 C 320.854 375.403, 329.233 378.098, 330.750 379.275 C 331.438 379.808, 332 380.009, 332 379.720 C 332 379.432, 334.137 379.864, 336.750 380.681 C 349.224 384.582, 360.978 386.391, 359.625 384.201 C 359.084 383.326, 357.282 382.922, 345.922 381.126 C 343.403 380.728, 338.903 379.220, 335.922 377.774 C 332.940 376.328, 328.925 374.887, 327 374.573 C 325.075 374.258, 322.207 373.795, 320.627 373.544 C 315.898 372.793, 315.837 370, 320.551 370 C 321.900 370, 323.539 369.110, 324.232 368 C 324.919 366.900, 326 366, 326.634 366 C 327.267 366, 328.045 365.325, 328.362 364.500 C 328.716 363.576, 328.359 363, 327.433 363 C 322.215 363, 330.564 356.954, 336.500 356.435 C 338.150 356.290, 340.477 355.941, 341.671 355.659 C 342.982 355.349, 344.050 355.689, 344.369 356.519 C 346.070 360.951, 360.178 355.730, 364.148 349.200 C 365.385 347.165, 367.208 344.772, 368.199 343.883 C 369.189 342.993, 370.001 341.643, 370.002 340.883 C 370.004 340.122, 371.353 337.925, 373.001 336 C 374.649 334.075, 376.267 331.069, 376.597 329.319 C 377.246 325.878, 378.872 324.685, 381.067 326.041 C 382.199 326.741, 382.048 327.444, 380.242 329.886 C 378.108 332.773, 378.097 332.896, 379.946 333.483 C 381.504 333.977, 381.755 334.733, 381.299 337.545 C 380.815 340.526, 381.014 341, 382.750 341 C 388.498 341, 390.063 309.950, 386.313 270.323 C 385.843 265.357, 385.998 264.951, 390.122 260.323 C 397.279 252.293, 398.367 250.999, 397.924 251.036 C 397.691 251.055, 394.609 254.037, 391.076 257.661" stroke="none" fill="#61c43a" fill-rule="evenodd"/><path d="M 207.493 19.252 C 205.366 21.082, 204.709 22.816, 203.989 28.502 C 203.502 32.351, 202.313 37.525, 201.347 40 C 197.737 49.251, 200.208 79.459, 204.245 75.422 C 204.534 75.133, 206.481 77.957, 208.572 81.698 C 212.350 88.456, 220.298 97, 222.807 97 C 223.528 97, 223.871 96.601, 223.570 96.113 C 223.269 95.626, 223.692 94.671, 224.511 93.991 C 225.432 93.227, 226 93.156, 226 93.804 C 226 94.381, 226.787 95.059, 227.750 95.311 C 229.067 95.655, 228.943 95.797, 227.250 95.884 C 226.012 95.948, 225 96.483, 225 97.073 C 225 97.664, 225.787 97.963, 226.750 97.740 C 228.655 97.296, 235.013 100.596, 236.300 102.695 C 237.398 104.487, 239 104.336, 239 102.441 C 239 101.584, 238.555 101.157, 238.011 101.493 C 237.453 101.838, 237.272 101.454, 237.596 100.612 C 238.054 99.418, 238.649 99.339, 240.576 100.217 C 242.353 101.026, 242.711 101.643, 241.944 102.568 C 241.215 103.446, 241.251 104.037, 242.063 104.539 C 242.701 104.934, 243.558 104.715, 243.966 104.054 C 244.516 103.166, 245.594 103.392, 248.105 104.923 C 249.972 106.061, 251.962 106.994, 252.526 106.996 C 254.191 107.002, 252.935 98.741, 250.873 96.115 C 249.843 94.803, 248.993 93.003, 248.985 92.115 C 248.968 90.244, 246.663 83.330, 245.754 82.421 C 244.331 80.998, 246.195 79.034, 248.034 80.018 C 249.043 80.558, 250.886 81, 252.129 81 C 253.372 81, 255.764 82.355, 257.445 84.011 C 259.125 85.667, 262.691 89.155, 265.370 91.761 C 273.074 99.258, 275.727 102.345, 276.408 104.603 C 276.756 105.760, 278.382 107.901, 280.021 109.361 C 281.659 110.821, 283 112.690, 283 113.514 C 283 114.339, 284.059 115.934, 285.354 117.060 C 286.649 118.186, 288.751 121.333, 290.025 124.053 C 292.875 130.138, 294.434 130.304, 295.852 124.674 C 299.900 108.598, 299.123 79.109, 294.518 74.020 C 293.712 73.129, 292.381 70.497, 291.560 68.171 C 289.784 63.135, 280.327 50.222, 274.009 44.206 C 271.529 41.844, 268.584 39.032, 267.465 37.956 C 266.345 36.880, 264.995 36.002, 264.465 36.005 C 263.934 36.008, 266.659 39.045, 270.520 42.755 C 274.381 46.465, 279.315 52.200, 281.484 55.500 C 283.653 58.800, 286.415 62.722, 287.620 64.215 C 288.826 65.709, 290.105 68.661, 290.462 70.777 C 290.820 72.892, 292.212 75.903, 293.556 77.467 C 295.736 80.004, 295.989 81.185, 295.900 88.406 C 295.845 92.857, 295.505 95.600, 295.143 94.500 C 293.094 88.263, 286.789 79.570, 284.796 80.235 C 284.114 80.462, 281.675 79.212, 279.375 77.457 C 276.053 74.921, 274.097 74.216, 269.847 74.022 C 264.923 73.797, 260.366 73.477, 257.250 73.136 C 256.563 73.061, 256 71.880, 256 70.512 C 256 68.382, 255.424 67.931, 252 67.384 C 249.800 67.032, 248 66.419, 248 66.021 C 248 65.622, 246.762 63.992, 245.250 62.397 C 243.737 60.802, 240.970 56.461, 239.100 52.749 C 236.353 47.296, 235.250 46, 233.350 46 C 231.981 46, 231 45.404, 231 44.573 C 231 42.090, 225.956 38.792, 224.282 40.181 C 223.157 41.114, 222.651 41.061, 221.939 39.936 C 221.193 38.757, 221.028 38.813, 221.015 40.250 C 220.994 42.734, 220.440 42.497, 215.760 38 C 210.863 33.294, 208.613 32.988, 206.572 36.750 C 205.128 39.412, 205.079 39.276, 205.044 32.500 C 204.986 21.417, 207.384 18.566, 217.500 17.685 C 220.614 17.413, 220.239 17.299, 215.806 17.168 C 211.189 17.032, 209.616 17.426, 207.493 19.252 M 343.500 119.524 C 332.217 121.350, 313 132.725, 313 137.577 C 313 139.205, 312.709 139.166, 324 139.028 C 338.805 138.846, 348.058 141.738, 348.811 146.784 C 349.181 149.265, 351.706 149.838, 361.250 149.607 C 364.962 149.518, 368 149.805, 368 150.247 C 368 154.904, 390.771 148.242, 393.623 142.750 C 394.409 141.238, 395.441 140, 395.917 140 C 397.095 140, 400 132.539, 400 129.515 C 400 126.845, 398.280 125.619, 393.169 124.650 C 391.337 124.302, 388.689 123.114, 387.284 122.009 C 385.857 120.887, 383.355 120.045, 381.615 120.102 C 378.500 120.205, 378.500 120.205, 381.791 120.984 C 383.601 121.413, 385.929 122.530, 386.963 123.467 C 387.998 124.403, 390.673 125.415, 392.908 125.714 C 397.910 126.385, 399.378 128, 398.524 131.890 C 397.556 136.299, 395.854 137.300, 391.326 136.125 C 388.177 135.307, 361.023 133.592, 354.745 133.814 C 353.780 133.848, 351.787 133.252, 350.317 132.489 C 348.846 131.727, 347.287 131.323, 346.851 131.592 C 346.415 131.861, 344.597 131.326, 342.810 130.402 C 340.617 129.268, 337.494 128.779, 333.200 128.897 C 329.026 129.012, 327.058 128.716, 327.478 128.036 C 327.830 127.466, 328.705 127, 329.422 127 C 330.138 127, 332.337 125.719, 334.306 124.154 C 338.560 120.774, 352.699 118.870, 369 119.483 C 376.521 119.766, 377.458 119.667, 373.500 119.008 C 366.249 117.800, 352.712 118.033, 343.500 119.524 M 403.571 229.571 C 402.707 230.436, 402 231.783, 402 232.566 C 402 234.024, 390.321 246, 388.899 246 C 388.258 246, 377.993 254.153, 370.957 260.249 C 370.109 260.984, 367.859 262.211, 365.957 262.974 C 362.593 264.326, 357.658 267.858, 353.404 271.959 C 352.251 273.071, 349.339 274.675, 346.932 275.524 C 344.526 276.373, 341.644 277.880, 340.528 278.872 C 339.413 279.864, 337.052 281.248, 335.283 281.946 C 333.514 282.644, 331.542 283.847, 330.901 284.619 C 330.260 285.391, 327.883 286.907, 325.618 287.987 C 323.353 289.067, 320.825 290.398, 320 290.946 C 319.175 291.494, 315.800 292.970, 312.500 294.226 C 304.929 297.109, 305.240 298.487, 313.478 298.548 C 321.358 298.607, 321.591 298.818, 320.013 304.452 C 318.450 310.035, 308.996 315.441, 308.999 310.750 C 309 310.337, 308.361 310, 307.579 310 C 306.798 310, 305.878 308.719, 305.534 307.154 C 304.217 301.159, 297.294 298.822, 291.660 302.470 C 290.472 303.240, 286.800 304.515, 283.500 305.304 C 280.200 306.093, 273.512 307.922, 268.638 309.369 C 263.764 310.816, 257.914 312.052, 255.638 312.116 C 253.362 312.180, 252.358 312.451, 253.407 312.720 C 256.814 313.591, 277.371 310.974, 279.049 309.456 C 280.916 307.766, 287.007 306.361, 286.984 307.625 C 286.962 308.807, 281.010 315.500, 279.980 315.500 C 277.425 315.500, 268.333 327.111, 269.460 328.935 C 269.758 329.418, 269.102 329.578, 268.001 329.290 C 266.901 329.002, 266 329.198, 266 329.726 C 266 330.253, 264.425 331.533, 262.500 332.570 C 260.575 333.607, 259 334.730, 259 335.067 C 259 335.404, 257.200 336.274, 255 337 C 252.800 337.726, 251 338.646, 251 339.043 C 251 339.721, 247.736 341.129, 245.500 341.416 C 244.950 341.486, 243.046 342.147, 241.269 342.885 C 236.472 344.877, 234.308 343.843, 225.365 335.285 C 214.124 324.527, 212.019 319.794, 218 318.721 C 220.252 318.317, 220.202 318.260, 217.500 318.151 C 212.248 317.940, 211.527 319.153, 214.013 324.026 C 216.261 328.432, 228.704 341.545, 235.053 346.198 C 237.008 347.630, 239.439 350.647, 240.455 352.901 C 242.074 356.490, 242.712 357, 245.580 357 C 247.383 357, 249.548 357.691, 250.393 358.536 C 251.238 359.380, 252.189 360.009, 252.507 359.932 C 252.825 359.856, 254.408 360.341, 256.025 361.010 C 258.789 362.155, 262.997 361.664, 261.683 360.350 C 259.997 358.664, 264.130 354.224, 268.530 352.991 C 273.015 351.736, 282.954 345.337, 282.985 343.685 C 282.993 343.237, 286.375 339.452, 290.500 335.273 C 294.625 331.094, 298.044 327.185, 298.097 326.587 C 298.150 325.989, 298.116 323.814, 298.021 321.754 C 297.812 317.235, 299.498 316.339, 310.062 315.358 C 316.557 314.754, 317 314.841, 317 316.722 C 317 317.826, 317.900 319.874, 319 321.273 C 321.803 324.836, 320.376 327.881, 315.861 327.968 C 313.923 328.006, 308.923 331.918, 310.750 331.967 C 311.536 331.988, 312 333.484, 312 336 C 312 338.200, 312.450 340, 313 340 C 313.550 340, 314 340.879, 314 341.953 C 314 344.390, 305.618 348.372, 302.263 347.530 C 300.162 347.002, 300 347.286, 300 351.497 C 300 364.427, 293.213 368.914, 284.714 361.603 C 281.616 358.937, 278.460 359.132, 277.701 362.036 C 276.791 365.516, 284.797 369.438, 297.028 371.505 C 299.213 371.874, 301 372.515, 301 372.930 C 301 373.345, 305.163 374.694, 310.250 375.929 C 315.337 377.163, 321.525 378.775, 324 379.509 C 328.829 380.943, 344.635 384.686, 352 386.140 C 354.475 386.629, 357.400 387.298, 358.500 387.627 C 360.066 388.095, 360.245 387.956, 359.323 386.986 C 358.676 386.304, 354.401 384.941, 349.823 383.958 C 345.245 382.974, 339.363 381.500, 336.750 380.682 C 334.137 379.865, 332 379.432, 332 379.720 C 332 380.009, 331.438 379.808, 330.750 379.275 C 329.233 378.098, 320.854 375.403, 315.863 374.487 C 312.442 373.859, 305 368.130, 305 366.125 C 305 364.627, 307.788 362.841, 309.690 363.119 C 312.198 363.485, 316 362.087, 316 360.797 C 316 359.080, 320.436 355.452, 325.579 352.962 C 328.201 351.693, 331.168 349.832, 332.173 348.827 C 333.178 347.822, 334 347.253, 334 347.563 C 334 347.872, 335.298 346.860, 336.884 345.313 C 338.470 343.766, 339.569 342.163, 339.326 341.751 C 339.082 341.339, 340.495 340.050, 342.466 338.888 C 344.436 337.725, 347.205 334.800, 348.619 332.387 C 350.033 329.974, 351.571 328, 352.036 328 C 353.501 328, 354.085 329.829, 352.862 330.585 C 352.081 331.068, 351.961 330.873, 352.500 330 C 353.051 329.108, 352.920 328.932, 352.088 329.446 C 350.700 330.304, 351.356 331.288, 353.529 331.607 C 354.338 331.726, 355.006 331.300, 355.013 330.662 C 355.021 330.023, 357.238 327.042, 359.942 324.039 C 362.645 321.035, 364.651 318.245, 364.400 317.839 C 364.149 317.433, 364.959 316.557, 366.200 315.893 C 368.385 314.723, 368.394 314.662, 366.478 313.913 C 365.390 313.488, 365.077 313.109, 365.782 313.070 C 366.487 313.032, 367.471 311.988, 367.969 310.750 C 368.662 309.026, 368.888 308.909, 368.937 310.250 C 368.972 311.232, 369.768 311.993, 370.750 311.985 C 372.033 311.973, 372.158 311.753, 371.220 311.157 C 370.187 310.501, 370.205 309.833, 371.318 307.688 C 372.077 306.226, 373.014 305.347, 373.401 305.735 C 373.789 306.122, 373.850 305.773, 373.538 304.960 C 373.226 304.146, 373.877 301.702, 374.985 299.529 C 376.093 297.355, 377.007 294.435, 377.015 293.039 C 377.024 291.642, 377.467 289.825, 378 289 C 378.818 287.735, 378.972 287.726, 378.985 288.941 C 378.996 289.969, 379.411 289.825, 380.431 288.441 C 381.822 286.554, 381.890 286.570, 382.868 289 C 383.421 290.375, 383.909 290.825, 383.952 290 C 384.022 288.667, 384.144 288.667, 385.049 290 C 385.758 291.045, 385.895 288.922, 385.499 283 C 384.198 263.520, 383.899 264.941, 390.745 258.095 C 398.706 250.134, 409.978 228, 406.071 228 C 405.561 228, 404.436 228.707, 403.571 229.571" stroke="none" fill="#7cd02d" fill-rule="evenodd"/><path d="M 198.144 76.500 C 198.002 90.810, 199.340 101.613, 201.558 104.064 C 202.349 104.938, 203.383 107.728, 203.857 110.265 C 204.331 112.802, 205.795 116.240, 207.109 117.906 C 208.424 119.572, 210.850 122.822, 212.500 125.128 C 216.609 130.871, 230.829 144.835, 234.500 146.731 C 236.150 147.584, 238.772 149.343, 240.327 150.641 C 241.881 151.938, 243.958 153, 244.942 153 C 245.925 153, 248 154.012, 249.551 155.250 C 252.222 157.381, 265.602 162.559, 271 163.550 C 272.375 163.803, 272.825 163.725, 272 163.377 C 267.971 161.680, 264.122 156, 267 156 C 267.550 156, 268 154.650, 268 153 C 268 151.350, 268.337 150.007, 268.750 150.015 C 270.012 150.041, 271.667 151.421, 272.330 153 C 272.677 153.825, 272.753 151.866, 272.498 148.647 C 272.242 145.409, 271.183 141.388, 270.127 139.647 C 269.077 137.916, 267.744 134.230, 267.164 131.455 C 265.438 123.199, 259.782 111.960, 260.645 118.500 C 261.042 121.510, 262.239 124.625, 263.652 126.327 C 265.947 129.090, 266.915 135, 265.071 135 C 263.616 135, 261.016 132.032, 260.848 130.179 C 260.764 129.255, 260.646 127.969, 260.585 127.321 C 260.420 125.559, 259.774 125.164, 255.970 124.500 C 254.061 124.167, 252.350 123.468, 252.167 122.947 C 251.983 122.426, 251.061 122, 250.117 122 C 249.173 122, 247.890 121.490, 247.266 120.866 C 245.974 119.574, 238.720 118.739, 239.481 119.969 C 240.510 121.634, 237.114 123.339, 235.476 121.980 C 234.638 121.284, 233.666 121, 233.318 121.349 C 232.969 121.697, 232.080 121.481, 231.342 120.869 C 230.604 120.256, 230 120.070, 230 120.454 C 230 120.839, 228.843 119.778, 227.428 118.097 C 226.014 116.416, 225.116 114.621, 225.433 114.108 C 225.750 113.595, 225.220 113.293, 224.255 113.437 C 223.290 113.581, 222.435 114.554, 222.356 115.599 C 222.277 116.645, 222.165 118.063, 222.106 118.750 C 222.048 119.438, 221.523 120, 220.941 120 C 220.359 120, 220.160 119.550, 220.500 119 C 220.840 118.450, 220.641 118, 220.059 118 C 219.477 118, 219 117.100, 219 116 C 219 114.667, 218.333 114, 217 114 C 214.691 114, 214.682 114.033, 215.972 117.426 C 216.507 118.832, 216.683 120.662, 216.365 121.491 C 215.480 123.798, 212.223 123.303, 211.481 120.750 C 211.122 119.513, 209.669 117.525, 208.253 116.334 C 204.608 113.268, 203.548 103, 206.876 103 C 208.230 103, 209.002 103.634, 209.006 104.750 C 209.009 105.713, 209.480 108.188, 210.053 110.250 C 211.202 114.389, 213.517 115.483, 212.761 111.530 C 212.501 110.172, 212.674 109.298, 213.144 109.589 C 214.452 110.397, 214.169 108.645, 212.427 105.154 C 211.561 103.419, 210.388 102, 209.818 102 C 209.242 102, 209.035 100.995, 209.353 99.730 C 209.905 97.530, 208.146 90.812, 206.617 89.284 C 206.202 88.869, 205.106 89.426, 204.182 90.521 C 203.257 91.616, 202.609 92.326, 202.741 92.098 C 202.874 91.870, 202.455 91.048, 201.810 90.271 C 201.165 89.494, 200.493 86.978, 200.317 84.679 C 198.817 65.129, 198.277 63.095, 198.144 76.500 M 334.785 151.371 C 332.863 152.676, 329.054 154.486, 326.322 155.393 C 323.589 156.301, 320.486 157.710, 319.427 158.525 C 315.237 161.746, 310.316 165.020, 306.622 167.046 C 296.914 172.367, 331.878 179.129, 347.873 175.024 C 358.345 172.336, 366.666 169.644, 368 168.513 C 368.825 167.814, 371.075 166.446, 373 165.474 C 377.243 163.332, 384.433 157.143, 388.465 152.163 C 391.431 148.500, 391.431 148.500, 386.751 152.500 C 377.557 160.358, 375.039 162.142, 374.026 161.516 C 373.462 161.167, 373 161.373, 373 161.972 C 373 162.572, 372.212 163.339, 371.250 163.676 C 370.288 164.013, 368.149 165.554, 366.498 167.101 C 364.426 169.041, 362.102 170.062, 358.998 170.396 C 356.524 170.663, 353.196 171.198, 351.601 171.585 C 349.539 172.087, 348.907 171.959, 349.410 171.145 C 349.801 170.513, 349.531 169.972, 348.809 169.937 C 348.089 169.902, 348.512 169.466, 349.750 168.969 C 352.759 167.759, 352.611 166, 349.500 166 C 348.125 166, 347 165.550, 347 165 C 347 164.450, 346.373 164, 345.607 164 C 343.786 164, 342.765 161.296, 344.306 160.556 C 344.963 160.240, 343.382 160.200, 340.794 160.466 C 338.205 160.732, 335.826 160.528, 335.508 160.013 C 335.156 159.443, 333.988 159.504, 332.528 160.169 C 329.962 161.338, 327 160.728, 327 159.031 C 327 158.464, 327.900 158, 329 158 C 330.100 158, 331 157.541, 331 156.980 C 331 156.420, 332.138 156.167, 333.530 156.420 C 335.118 156.708, 336.005 156.436, 335.911 155.689 C 335.538 152.696, 336.167 151.225, 338.250 150.220 C 339.488 149.624, 340 149.105, 339.390 149.068 C 338.779 149.030, 336.707 150.067, 334.785 151.371 M 378.285 325.843 C 377.716 326.204, 376.956 327.863, 376.595 329.529 C 376.234 331.194, 374.603 334.119, 372.972 336.029 C 371.340 337.938, 370.004 340.122, 370.002 340.883 C 370.001 341.643, 369.189 342.993, 368.199 343.883 C 367.208 344.772, 365.385 347.165, 364.148 349.200 C 360.178 355.730, 346.070 360.951, 344.369 356.519 C 344.050 355.689, 342.982 355.349, 341.671 355.659 C 340.477 355.941, 338.150 356.290, 336.500 356.435 C 330.564 356.954, 322.215 363, 327.433 363 C 328.359 363, 328.716 363.576, 328.362 364.500 C 328.045 365.325, 327.267 366, 326.634 366 C 326 366, 324.919 366.900, 324.232 368 C 323.539 369.110, 321.900 370, 320.551 370 C 315.837 370, 315.898 372.793, 320.627 373.544 C 322.207 373.795, 325.075 374.262, 327 374.582 C 328.925 374.901, 333.264 376.476, 336.643 378.081 C 340.022 379.687, 343.953 381, 345.379 381 C 348.196 381, 356.646 382.821, 358.901 383.914 C 361.383 385.117, 371.965 372.371, 370.480 369.967 C 369.587 368.523, 374.813 358, 376.422 358 C 378.113 358, 381.100 350.870, 379.984 349.500 C 378.786 348.029, 379.213 346.881, 382 344.070 C 384.289 341.762, 384.343 341.518, 382.635 341.179 C 381.118 340.878, 380.871 340.180, 381.314 337.450 C 381.757 334.723, 381.493 333.974, 379.914 333.473 C 377.997 332.864, 377.998 332.818, 379.984 330.293 C 382.732 326.799, 381.569 323.753, 378.285 325.843" stroke="none" fill="#53c132" fill-rule="evenodd"/><path d="M 209.750 19.023 C 206.591 20.966, 204.998 25.591, 205.040 32.700 C 205.079 39.299, 205.124 39.419, 206.572 36.750 C 208.613 32.988, 210.863 33.294, 215.760 38 C 220.440 42.497, 220.994 42.734, 221.015 40.250 C 221.028 38.813, 221.193 38.757, 221.939 39.936 C 222.651 41.061, 223.157 41.114, 224.282 40.181 C 225.956 38.792, 231 42.090, 231 44.573 C 231 45.404, 231.981 46, 233.350 46 C 235.250 46, 236.353 47.296, 239.100 52.749 C 240.970 56.461, 243.738 60.802, 245.250 62.397 C 246.762 63.992, 248 65.622, 248 66.021 C 248 66.419, 249.800 67.032, 252 67.384 C 255.424 67.931, 256 68.382, 256 70.512 C 256 71.880, 256.563 73.061, 257.250 73.136 C 260.366 73.477, 264.923 73.797, 269.847 74.022 C 274.097 74.216, 276.053 74.921, 279.375 77.457 C 281.675 79.212, 284.114 80.462, 284.796 80.235 C 286.789 79.570, 293.094 88.263, 295.143 94.500 C 295.505 95.600, 295.845 92.857, 295.900 88.406 C 295.989 81.185, 295.736 80.004, 293.556 77.467 C 292.212 75.903, 290.820 72.892, 290.462 70.777 C 290.105 68.661, 288.826 65.709, 287.620 64.215 C 286.415 62.722, 283.653 58.800, 281.484 55.500 C 277.275 49.097, 264.348 36.013, 262.223 36.005 C 261.073 36, 253.027 32.231, 242.695 26.857 C 240.603 25.768, 236.328 24.465, 233.195 23.962 C 229.275 23.331, 226.930 22.351, 225.672 20.815 C 223.586 18.271, 212.924 17.071, 209.750 19.023 M 346.939 120.349 C 338.922 121.314, 336.850 121.944, 334.112 124.250 C 332.316 125.763, 330.233 127, 329.482 127 C 328.732 127, 327.830 127.466, 327.478 128.036 C 327.058 128.716, 329.026 129.012, 333.200 128.897 C 337.494 128.779, 340.617 129.268, 342.810 130.402 C 344.597 131.326, 346.415 131.861, 346.851 131.592 C 347.287 131.323, 348.846 131.727, 350.317 132.489 C 351.787 133.252, 353.780 133.848, 354.745 133.814 C 361.023 133.592, 388.177 135.307, 391.326 136.125 C 395.854 137.300, 397.556 136.299, 398.524 131.890 C 399.374 128.022, 397.912 126.386, 393.020 125.729 C 390.847 125.438, 387.934 124.307, 386.546 123.215 C 382.273 119.854, 362.773 118.442, 346.939 120.349 M 282 307.709 C 281.175 308.013, 279.794 308.874, 278.930 309.622 C 277.958 310.465, 272.439 311.408, 264.430 312.098 C 256.430 312.788, 249.716 313.934, 246.821 315.104 C 243.721 316.356, 237.688 317.310, 228.938 317.931 C 210.755 319.220, 210.397 320.959, 225.365 335.285 C 234.308 343.843, 236.472 344.877, 241.269 342.885 C 243.046 342.147, 244.950 341.486, 245.500 341.416 C 247.736 341.129, 251 339.721, 251 339.043 C 251 338.646, 252.800 337.726, 255 337 C 257.200 336.274, 259 335.404, 259 335.067 C 259 334.730, 260.575 333.607, 262.500 332.570 C 264.425 331.533, 266 330.253, 266 329.726 C 266 329.198, 266.901 329.002, 268.001 329.290 C 269.102 329.578, 269.758 329.418, 269.460 328.935 C 268.333 327.111, 277.425 315.500, 279.980 315.500 C 280.945 315.500, 286.961 308.844, 286.984 307.750 C 287.002 306.902, 284.257 306.880, 282 307.709" stroke="none" fill="#c7ec36" fill-rule="evenodd"/><path d="M 93.365 348.681 C 92.929 350.420, 93.254 352.264, 94.291 353.931 C 95.171 355.344, 96.838 358.525, 97.997 361 C 101.677 368.863, 104.249 373.299, 109.694 381.176 C 112.612 385.398, 115.004 389.223, 115.008 389.676 C 115.027 391.601, 127.705 402.955, 131.500 404.445 C 141.584 408.405, 146.973 405.674, 140.840 399.711 C 139.828 398.727, 139 397.596, 139 397.197 C 139 396.798, 137.200 395.360, 135 394 C 132.800 392.640, 131 391.286, 131 390.991 C 131 390.695, 128.733 387.989, 125.963 384.977 C 123.192 381.964, 119.525 377.475, 117.812 375 C 116.100 372.525, 112.594 368.025, 110.020 365 C 107.447 361.975, 104.839 358.039, 104.224 356.253 C 101.322 347.823, 94.734 343.229, 93.365 348.681 M 204 372.934 C 204 373.447, 202.766 374.010, 201.257 374.184 C 197.034 374.671, 195.679 378.682, 195.583 390.985 C 195.458 406.824, 196.381 408.773, 206.873 414.824 C 212.185 417.888, 244.166 417.968, 246.048 414.923 C 246.581 414.060, 246.853 414.059, 247.140 414.920 C 247.380 415.639, 248.785 415.134, 250.910 413.566 C 252.774 412.191, 254.631 411.272, 255.037 411.523 C 255.746 411.961, 256.774 408.242, 257.383 403.037 C 257.788 399.580, 255.067 393.156, 252.908 392.471 C 251.915 392.156, 250.815 390.993, 250.464 389.888 C 250.114 388.782, 248.645 387.343, 247.201 386.689 C 245.757 386.035, 243.510 384.515, 242.209 383.312 C 240.907 382.109, 238.415 380.817, 236.671 380.442 C 234.927 380.066, 232.295 379.144, 230.823 378.392 C 229.351 377.639, 223.771 376.367, 218.425 375.564 C 213.078 374.760, 208.230 373.630, 207.652 373.052 C 206.349 371.749, 204 371.673, 204 372.934 M 153.971 412.647 C 146.285 414.732, 151.371 427.116, 160.412 428.328 C 162.637 428.627, 164.617 429.350, 164.812 429.935 C 165.007 430.521, 165.735 431, 166.430 431 C 167.125 431, 168.736 431.904, 170.010 433.009 C 171.284 434.114, 174.053 435.535, 176.163 436.167 C 178.273 436.799, 180 437.620, 180 437.992 C 180 438.363, 180.563 438.723, 181.250 438.792 C 182.578 438.926, 185.170 439.521, 199.500 442.981 C 229.492 450.225, 242.417 448.882, 245.280 438.223 C 246.036 435.410, 246.954 433.995, 247.964 434.089 C 251.196 434.387, 254 433.967, 254 433.186 C 254 432.738, 248.955 432.256, 242.789 432.114 C 236.622 431.973, 231.334 431.706, 231.037 431.523 C 230.739 431.339, 223.747 430.436, 215.498 429.516 C 200.732 427.869, 184.845 423.969, 177 420.066 C 175.075 419.109, 170.575 417.481, 167 416.448 C 163.425 415.416, 159.905 413.993, 159.179 413.286 C 157.855 411.998, 156.827 411.872, 153.971 412.647 M 293.038 421.036 C 290.035 422.116, 286.885 423.004, 286.038 423.010 C 285.192 423.015, 282.025 424.180, 279 425.598 C 275.975 427.017, 270.643 428.782, 267.150 429.522 C 259.552 431.130, 259.854 430.875, 259.012 436.418 C 258.214 441.678, 258.675 441.934, 268.214 441.523 C 277.662 441.116, 284.671 439.268, 296.500 434.065 C 302.813 431.289, 315.542 430.208, 317.607 432.274 C 318.965 433.631, 321.135 430.867, 319.890 429.367 C 319.266 428.615, 319.035 428, 319.378 428 C 320.725 428, 316.002 424.095, 314.307 423.807 C 313.313 423.638, 312.275 423.253, 312 422.951 C 309.036 419.693, 299.461 418.727, 293.038 421.036" stroke="none" fill="#fd8602" fill-rule="evenodd"/><path d="M 132 210.993 C 131.175 211.858, 128.925 214.712, 127 217.336 C 125.075 219.960, 121.975 223.995, 120.112 226.303 C 95.788 256.430, 84.947 315.479, 102.696 321.165 C 116.483 325.581, 138.445 327.324, 145.730 324.580 C 153.304 321.727, 169.561 316.995, 171.781 316.998 C 174.927 317.001, 175.663 314.349, 173.251 311.699 C 172.151 310.490, 170.722 308.477, 170.077 307.226 C 169.058 305.250, 168.717 305.140, 167.468 306.390 C 163.365 310.492, 134.128 308.999, 124 304.169 C 110.034 297.509, 108.586 276.447, 121.011 260.704 C 125.090 255.536, 136.821 251.579, 139.825 254.358 C 146.582 260.608, 146 260.582, 146 254.635 C 146 250.728, 145.439 248.556, 143.935 246.645 C 142.690 245.062, 141.477 241.337, 140.880 237.260 C 140.335 233.542, 139.014 228.392, 137.944 225.815 C 136.875 223.238, 135.966 219.863, 135.924 218.315 C 135.780 212.995, 133.733 209.176, 132 210.993 M 107.501 348.642 C 102.916 353.227, 131.420 392, 139.374 392 C 144.833 392, 144.107 380.015, 138.183 372.341 C 136.157 369.717, 132.229 364.180, 129.453 360.035 C 122.812 350.121, 111.759 344.384, 107.501 348.642 M 189.500 370.814 C 187.310 371.272, 176.803 376.870, 176 378.008 C 175.725 378.397, 173.438 379.621, 170.918 380.727 C 164.548 383.524, 160.269 387.980, 159.465 392.654 C 159.101 394.770, 158.480 397.850, 158.085 399.500 C 155.601 409.861, 175.918 420.750, 210.483 427.583 C 224 430.255, 246.255 429.067, 248.558 425.551 C 252.111 420.129, 242.204 416.266, 236.624 420.897 C 235.409 421.906, 221.970 421.752, 218.500 420.690 C 217.400 420.353, 213.800 419.353, 210.500 418.467 C 194.523 414.179, 190.390 405.576, 193.938 384 C 196.083 370.957, 195.605 369.539, 189.500 370.814" stroke="none" fill="#ffe730" fill-rule="evenodd"/><path d="M 158 194.024 C 158 208.566, 162.207 231.488, 167.622 246.451 C 169.025 250.328, 170.862 255.750, 171.704 258.500 C 172.546 261.250, 174.247 264.854, 175.485 266.510 C 176.723 268.165, 178.074 271.090, 178.487 273.010 C 178.901 274.929, 180.535 278.276, 182.119 280.447 C 183.704 282.618, 185 284.800, 185 285.296 C 185 298.111, 199.130 301.411, 230.500 295.924 C 237.100 294.769, 245.617 293.397, 249.427 292.875 C 253.237 292.352, 262.462 289.847, 269.927 287.309 C 277.392 284.770, 286.511 281.665, 290.190 280.409 C 293.870 279.152, 297.920 277.465, 299.190 276.660 C 300.461 275.855, 303.014 274.880, 304.864 274.494 C 308.516 273.731, 318.183 268.852, 324.390 264.640 C 326.529 263.188, 328.857 262, 329.563 262 C 330.269 262, 332.119 260.938, 333.673 259.641 C 335.228 258.343, 338.075 256.480, 340 255.501 C 341.925 254.522, 343.725 253.444, 344 253.105 C 344.275 252.766, 347.200 250.486, 350.500 248.037 C 375.168 229.736, 375.096 226.967, 349.328 202.886 C 339.261 193.477, 315.339 187.445, 300.345 190.534 C 294.879 191.660, 301.525 192.996, 312 192.878 C 321.978 192.765, 322.024 192.773, 321.362 194.500 C 321.037 195.345, 319.549 196, 317.952 196 C 316.393 196, 314.810 196.498, 314.434 197.107 C 313.954 197.884, 313.509 197.823, 312.940 196.903 C 312.291 195.852, 311.671 195.835, 309.815 196.817 C 308.542 197.490, 306.375 197.998, 305 197.944 C 300.710 197.777, 291.248 198.728, 290.091 199.444 C 289.483 199.819, 288.717 199.426, 288.388 198.569 C 288.059 197.712, 287.393 197.257, 286.907 197.558 C 286.421 197.858, 286.289 197.409, 286.615 196.560 C 287.622 193.937, 284.490 193.709, 272.444 195.530 C 259.836 197.436, 235.988 197.202, 230.714 195.122 C 228.504 194.249, 227.819 194.309, 227.395 195.413 C 226.474 197.814, 222.955 197.944, 218.714 195.734 C 216.465 194.562, 213.349 193.700, 211.788 193.819 C 210.024 193.954, 208.731 193.464, 208.371 192.524 C 208.052 191.692, 207.462 191.215, 207.060 191.463 C 201.637 194.815, 178.805 196.195, 177.513 193.250 C 176.473 190.881, 174.694 190.039, 175.574 192.333 C 175.861 193.079, 175.425 193.667, 174.587 193.667 C 173.763 193.667, 173.277 193.361, 173.508 192.988 C 173.738 192.614, 171.357 192.438, 168.215 192.595 C 163.529 192.830, 162.098 192.501, 160.251 190.766 C 158 188.651, 158 188.651, 158 194.024" stroke="none" fill="#fc1a22" fill-rule="evenodd"/><path d="M 132.533 145.176 C 132.279 145.904, 131.419 148.300, 130.621 150.500 C 126.960 160.596, 125.825 164.216, 123.096 174.500 C 121.490 180.550, 119.899 188.200, 119.559 191.500 C 118.249 204.226, 118.076 204.691, 112.416 210.724 C 109.437 213.899, 107 216.798, 107 217.166 C 107 217.534, 104.552 220.821, 101.560 224.472 C 98.567 228.122, 95.576 232.772, 94.911 234.804 C 94.247 236.837, 91.896 241.875, 89.687 246 C 85.966 252.950, 83.707 259.268, 78.959 276 C 77.646 280.629, 77.099 286.007, 77.058 294.685 C 76.967 313.912, 74.116 315.584, 53.535 308.480 C 31.551 300.892, 29.365 305.322, 28.598 359 C 28.011 400.119, 27.559 410.583, 26.031 418.500 C 25.174 422.938, 24.467 441.121, 22.291 514.714 C 21.605 537.937, 23.330 541.989, 34.540 543.470 C 43.167 544.610, 50.729 546.567, 71.799 553.111 C 76.914 554.700, 82.410 556, 84.012 556 C 85.615 556, 89.080 556.836, 91.713 557.858 C 94.346 558.880, 98.525 560.016, 101 560.383 C 105.421 561.038, 125.158 566.586, 134 569.659 C 136.475 570.519, 141.875 571.878, 146 572.678 C 150.125 573.479, 155.759 575.004, 158.519 576.067 C 161.280 577.130, 164.716 578, 166.156 578 C 167.596 578, 172.537 579.136, 177.137 580.524 C 181.737 581.912, 189.583 584.103, 194.572 585.394 C 199.562 586.684, 204.674 588.290, 205.931 588.963 C 207.189 589.636, 212.001 590.799, 216.625 591.548 C 221.249 592.296, 226.025 593.604, 227.238 594.454 C 228.452 595.304, 230.357 595.999, 231.473 595.999 C 249.583 595.987, 260.598 604.572, 254.528 613.970 C 252.585 616.979, 250.756 620.193, 250.464 621.113 C 249.282 624.837, 244.539 625.463, 234.675 623.197 C 220.518 619.944, 203.896 615.374, 199.786 613.603 C 197.743 612.723, 192.879 611.550, 188.977 610.997 C 185.075 610.443, 180.529 609.291, 178.875 608.435 C 177.221 607.580, 171.413 606.032, 165.969 604.994 C 160.525 603.957, 155.193 602.639, 154.122 602.065 C 153.050 601.492, 148.283 600.115, 143.528 599.007 C 138.773 597.898, 133.653 596.355, 132.150 595.578 C 130.647 594.800, 125.930 593.679, 121.667 593.087 C 117.405 592.494, 112.559 591.306, 110.899 590.448 C 109.239 589.589, 104.195 588.062, 99.690 587.055 C 95.186 586.047, 87.512 584.048, 82.638 582.612 C 77.764 581.175, 73.039 579.990, 72.138 579.978 C 71.237 579.966, 68.526 579.061, 66.114 577.966 C 63.702 576.871, 58.527 575.483, 54.614 574.880 C 50.701 574.277, 46.600 573.304, 45.500 572.719 C 42.388 571.062, 32.043 569.074, 26.332 569.035 C 8.784 568.916, 10.284 587.559, 28.185 592.069 C 38.537 594.677, 46.651 596.798, 61 600.648 C 67.875 602.492, 74.049 604.001, 74.720 604 C 75.392 604, 78.326 605.091, 81.241 606.424 C 84.156 607.758, 89.457 609.168, 93.021 609.558 C 96.584 609.948, 100.733 610.891, 102.240 611.654 C 103.747 612.417, 109.372 613.939, 114.740 615.036 C 120.108 616.133, 127.875 618.112, 132 619.433 C 136.125 620.754, 141.300 622.131, 143.500 622.492 C 145.700 622.853, 148.535 623.815, 149.801 624.630 C 151.066 625.446, 155.840 626.718, 160.410 627.458 C 164.979 628.197, 170.059 629.496, 171.699 630.344 C 173.338 631.192, 177.789 632.420, 181.590 633.074 C 185.390 633.727, 192.718 635.553, 197.873 637.131 C 203.028 638.709, 208.570 640, 210.188 640 C 211.806 640, 215.238 640.897, 217.815 641.994 C 220.392 643.090, 225.650 644.616, 229.500 645.384 C 233.350 646.152, 240.217 647.763, 244.761 648.964 C 257.882 652.432, 263.122 649.094, 272.879 631.051 C 273.638 629.648, 275.073 627.600, 276.067 626.500 C 277.062 625.400, 278.708 622.700, 279.725 620.500 C 280.742 618.300, 283.807 613.029, 286.537 608.788 C 301.449 585.615, 305.227 579.520, 309.961 571 C 315.290 561.408, 316.511 559.410, 318.872 556.420 C 321.143 553.546, 329.105 541.022, 334 532.627 C 338.682 524.598, 340.498 521.750, 342.613 519.124 C 343.775 517.681, 345.044 515.485, 345.432 514.245 C 345.821 513.004, 347.281 510.631, 348.679 508.970 C 350.076 507.310, 353.253 502.025, 355.738 497.226 C 358.224 492.427, 361.032 487.600, 361.979 486.500 C 362.926 485.400, 365.431 481.575, 367.547 478 C 369.662 474.425, 372.181 470.597, 373.143 469.493 C 374.105 468.389, 375.484 466.139, 376.208 464.493 C 377.967 460.491, 382.637 453.343, 384.071 452.456 C 384.705 452.064, 386.304 449.439, 387.625 446.622 C 388.946 443.805, 391.859 439.025, 394.098 436 C 396.338 432.975, 398.845 428.961, 399.670 427.079 C 400.495 425.198, 403.298 420.473, 405.899 416.579 C 408.500 412.686, 411.210 408.052, 411.921 406.283 C 412.633 404.514, 413.887 402.508, 414.709 401.827 C 416.878 400.026, 422.851 390.441, 423.558 387.627 C 423.890 386.303, 425.475 383.961, 427.081 382.422 C 428.686 380.884, 430 378.955, 430 378.136 C 430 377.317, 431.652 374.248, 433.671 371.316 C 439.119 363.406, 442.760 362.818, 466.500 366.011 C 497.653 370.200, 515.946 369.689, 520.563 364.500 C 529.090 354.915, 522.528 347.963, 503.917 346.866 C 496.538 346.430, 486.450 345.607, 481.500 345.035 C 469.379 343.635, 444.379 342.034, 434.330 342.015 C 425.381 341.999, 418.656 347.133, 413.894 357.618 C 412.865 359.883, 411.293 362.342, 410.400 363.083 C 408.312 364.816, 401 376.047, 401 377.521 C 401 378.138, 399.663 380.411, 398.028 382.572 C 396.393 384.732, 395.043 387.010, 395.028 387.634 C 394.980 389.598, 387.096 396.001, 384.747 395.983 C 381.127 395.955, 368.841 392.488, 364.500 390.268 C 361.965 388.973, 358.574 388.225, 355.241 388.227 C 352.307 388.229, 349.268 387.638, 348.366 386.889 C 347.476 386.150, 343.318 384.774, 339.124 383.830 C 327.035 381.110, 306.006 375.420, 300 373.244 C 294.834 371.373, 284.624 368.273, 272 364.742 C 268.975 363.897, 262.225 362.429, 257 361.482 C 251.775 360.534, 246.503 359.138, 245.285 358.379 C 244.067 357.621, 240.874 357, 238.189 357 C 235.504 357, 231.912 356.304, 230.206 355.453 C 228.500 354.602, 224.353 353.463, 220.989 352.921 C 217.625 352.379, 213.221 351.050, 211.201 349.968 C 209.182 348.886, 206.934 348, 206.206 348 C 205.479 348, 202.997 345.875, 200.692 343.278 C 198.386 340.681, 195.374 337.383, 193.999 335.950 C 191.483 333.329, 187.002 327.495, 182.514 321 C 181.184 319.075, 178.536 315.250, 176.630 312.500 C 174.723 309.750, 172.403 305.587, 171.473 303.250 C 170.543 300.913, 169.423 299, 168.983 299 C 167.798 299, 161.578 287.279, 159.605 281.327 C 158.662 278.482, 157.241 275.615, 156.448 274.957 C 155.655 274.299, 154.372 271.677, 153.596 269.130 C 152.821 266.584, 151.289 262.475, 150.192 260 C 149.096 257.525, 147.904 253.673, 147.544 251.439 C 147.183 249.206, 146.016 246.056, 144.951 244.439 C 142.622 240.906, 142.479 241.510, 144.500 246.346 C 145.325 248.320, 146 252.200, 146 254.968 C 146 260.545, 146.575 260.602, 139.825 254.358 C 136.821 251.579, 125.090 255.536, 121.011 260.704 C 108.586 276.447, 110.034 297.509, 124 304.169 C 134.128 308.999, 163.365 310.492, 167.468 306.390 C 168.717 305.140, 169.058 305.250, 170.077 307.226 C 170.722 308.477, 172.151 310.490, 173.251 311.699 C 175.663 314.349, 174.927 317.001, 171.781 316.998 C 169.561 316.995, 153.304 321.727, 145.730 324.580 C 138.445 327.324, 116.483 325.581, 102.696 321.165 C 95.669 318.913, 93.992 315.591, 94.033 304 C 94.130 276.655, 104.569 245.554, 120.112 226.303 C 121.975 223.995, 125.075 219.960, 127 217.336 C 133.289 208.763, 133.573 208.622, 134.976 213.372 C 136.549 218.695, 140.162 227.172, 140.649 226.684 C 140.857 226.477, 140.394 224.775, 139.620 222.904 C 137.449 217.647, 135.746 189.798, 136.142 166.016 C 136.490 145.145, 135.180 137.580, 132.533 145.176 M 193 163.006 C 191.625 163.465, 187.125 164.805, 183 165.983 C 178.875 167.161, 174.384 168.850, 173.021 169.736 C 171.657 170.621, 168.747 171.876, 166.554 172.524 C 153.870 176.269, 155.181 193.288, 168.101 192.606 C 171.309 192.436, 173.744 192.606, 173.511 192.982 C 173.278 193.359, 173.763 193.667, 174.587 193.667 C 175.425 193.667, 175.861 193.079, 175.574 192.333 C 174.694 190.039, 176.473 190.881, 177.513 193.250 C 178.805 196.195, 201.637 194.815, 207.060 191.463 C 207.462 191.215, 208.052 191.692, 208.371 192.524 C 208.731 193.464, 210.024 193.954, 211.788 193.819 C 213.349 193.700, 216.465 194.562, 218.714 195.734 C 223.683 198.324, 226.542 197.752, 227.885 193.900 C 228.441 192.305, 228.582 190.993, 228.198 190.985 C 224.809 190.910, 231.382 189.287, 235.784 189.111 C 238.928 188.986, 243.300 188.038, 245.500 187.005 C 247.700 185.972, 250.850 184.724, 252.500 184.231 C 257.395 182.768, 251.454 174, 245.569 174 C 245.210 174, 242.123 172.696, 238.708 171.102 C 224.900 164.656, 200.831 160.393, 193 163.006 M 58.830 335.035 C 54.055 337.821, 52.187 352.946, 51.422 395 C 50.954 420.751, 51.770 422.288, 67.317 424.925 C 71.066 425.561, 76.253 426.917, 78.845 427.939 C 81.436 428.960, 87.560 430.546, 92.454 431.463 C 97.347 432.380, 102.566 433.758, 104.050 434.526 C 105.534 435.293, 109.672 436.388, 113.244 436.959 C 116.816 437.530, 121.507 438.620, 123.667 439.382 C 139.955 445.129, 141.577 423.557, 125.952 409 C 109.319 393.505, 101.196 383.356, 95.136 370.500 C 93.581 367.200, 91.564 363.882, 90.654 363.128 C 89.744 362.373, 88.998 361.248, 88.996 360.628 C 88.994 360.007, 87.646 356.800, 86 353.500 C 84.354 350.200, 83.006 346.813, 83.004 345.973 C 82.990 340.570, 64.039 331.996, 58.830 335.035 M 93.365 348.681 C 92.929 350.420, 93.254 352.264, 94.291 353.931 C 95.171 355.344, 96.838 358.525, 97.997 361 C 101.677 368.863, 104.249 373.299, 109.694 381.176 C 112.612 385.398, 115.004 389.223, 115.008 389.676 C 115.027 391.601, 127.705 402.955, 131.500 404.445 C 141.584 408.405, 146.973 405.674, 140.840 399.711 C 139.828 398.727, 139 397.596, 139 397.197 C 139 396.798, 137.200 395.360, 135 394 C 132.800 392.640, 131 391.286, 131 390.991 C 131 390.695, 128.733 387.989, 125.963 384.977 C 123.192 381.964, 119.525 377.475, 117.812 375 C 116.100 372.525, 112.594 368.025, 110.020 365 C 107.447 361.975, 104.839 358.039, 104.224 356.253 C 101.322 347.823, 94.734 343.229, 93.365 348.681 M 107.501 348.642 C 102.916 353.227, 131.420 392, 139.374 392 C 144.833 392, 144.107 380.015, 138.183 372.341 C 136.157 369.717, 132.229 364.180, 129.453 360.035 C 122.812 350.121, 111.759 344.384, 107.501 348.642 M 189.500 370.814 C 187.310 371.272, 176.803 376.870, 176 378.008 C 175.725 378.397, 173.438 379.621, 170.918 380.727 C 164.548 383.524, 160.269 387.980, 159.465 392.654 C 159.101 394.770, 158.480 397.850, 158.085 399.500 C 155.601 409.861, 175.918 420.750, 210.483 427.583 C 224 430.255, 246.255 429.067, 248.558 425.551 C 252.111 420.129, 242.204 416.266, 236.624 420.897 C 235.409 421.906, 221.970 421.752, 218.500 420.690 C 217.400 420.353, 213.800 419.353, 210.500 418.467 C 194.523 414.179, 190.390 405.576, 193.938 384 C 196.083 370.957, 195.605 369.539, 189.500 370.814 M 204 372.934 C 204 373.447, 202.766 374.010, 201.257 374.184 C 197.034 374.671, 195.679 378.682, 195.583 390.985 C 195.458 406.824, 196.381 408.773, 206.873 414.824 C 212.185 417.888, 244.166 417.968, 246.048 414.923 C 246.581 414.060, 246.853 414.059, 247.140 414.920 C 247.380 415.639, 248.785 415.134, 250.910 413.566 C 252.774 412.191, 254.631 411.272, 255.037 411.523 C 255.746 411.961, 256.774 408.242, 257.383 403.037 C 257.788 399.580, 255.067 393.156, 252.908 392.471 C 251.915 392.156, 250.815 390.993, 250.464 389.888 C 250.114 388.782, 248.645 387.343, 247.201 386.689 C 245.757 386.035, 243.510 384.515, 242.209 383.312 C 240.907 382.109, 238.415 380.817, 236.671 380.442 C 234.927 380.066, 232.295 379.144, 230.823 378.392 C 229.351 377.639, 223.771 376.367, 218.425 375.564 C 213.078 374.760, 208.230 373.630, 207.652 373.052 C 206.349 371.749, 204 371.673, 204 372.934 M 281.013 394.788 C 273.767 400.656, 278.891 407.409, 294.891 413.079 C 297.856 414.130, 300.823 415.438, 301.483 415.986 C 302.143 416.534, 305.792 418.062, 309.592 419.383 C 313.391 420.703, 320.324 423.189, 324.998 424.908 C 329.672 426.626, 337.435 428.787, 342.248 429.710 C 347.062 430.633, 351 431.688, 351 432.055 C 351 432.422, 352.075 432.517, 353.388 432.266 C 357.146 431.548, 361.367 434.131, 358 435.089 C 354.297 436.143, 328.915 436.087, 318 435 C 307.586 433.963, 299.119 434.991, 293 438.035 C 291.075 438.992, 283.288 441.422, 275.695 443.434 C 259.725 447.667, 257.245 448.653, 256.476 451.076 C 256.166 452.051, 254.855 454.409, 253.561 456.315 C 246.628 466.531, 248.306 471.744, 259.641 475.205 C 277.410 480.631, 289.776 483.991, 297.235 485.418 C 301.430 486.221, 306.177 487.557, 307.785 488.389 C 319.235 494.310, 331.075 492.535, 335.515 484.232 C 336.907 481.629, 340.722 475.225, 343.993 470 C 347.263 464.775, 351.153 458.475, 352.636 456 C 354.119 453.525, 356.179 450.548, 357.215 449.384 C 358.263 448.205, 359.572 444.401, 360.169 440.796 C 361.151 434.875, 361.539 434.165, 364.733 432.445 C 372.483 428.271, 375.295 419.944, 369.750 417.585 C 362.013 414.293, 358.025 412.937, 350.500 411.038 C 346.100 409.928, 336.650 407.418, 329.500 405.459 C 322.350 403.500, 312.450 401.018, 307.500 399.943 C 302.550 398.868, 296.475 397.140, 294 396.103 C 286.523 392.970, 283.621 392.676, 281.013 394.788 M 153.971 412.647 C 146.285 414.732, 151.371 427.116, 160.412 428.328 C 162.637 428.627, 164.617 429.350, 164.812 429.935 C 165.007 430.521, 165.735 431, 166.430 431 C 167.125 431, 168.736 431.904, 170.010 433.009 C 171.284 434.114, 174.053 435.535, 176.163 436.167 C 178.273 436.799, 180 437.620, 180 437.992 C 180 438.363, 180.563 438.723, 181.250 438.792 C 182.578 438.926, 185.170 439.521, 199.500 442.981 C 229.492 450.225, 242.417 448.882, 245.280 438.223 C 246.036 435.410, 246.954 433.995, 247.964 434.089 C 251.196 434.387, 254 433.967, 254 433.186 C 254 432.738, 248.955 432.256, 242.789 432.114 C 236.622 431.973, 231.334 431.706, 231.037 431.523 C 230.739 431.339, 223.747 430.436, 215.498 429.516 C 200.732 427.869, 184.845 423.969, 177 420.066 C 175.075 419.109, 170.575 417.481, 167 416.448 C 163.425 415.416, 159.905 413.993, 159.179 413.286 C 157.855 411.998, 156.827 411.872, 153.971 412.647 M 293.038 421.036 C 290.035 422.116, 286.885 423.004, 286.038 423.010 C 285.192 423.015, 282.025 424.180, 279 425.598 C 275.975 427.017, 270.643 428.782, 267.150 429.522 C 259.552 431.130, 259.854 430.875, 259.012 436.418 C 258.214 441.678, 258.675 441.934, 268.214 441.523 C 277.662 441.116, 284.671 439.268, 296.500 434.065 C 302.813 431.289, 315.542 430.208, 317.607 432.274 C 318.965 433.631, 321.135 430.867, 319.890 429.367 C 319.266 428.615, 319.035 428, 319.378 428 C 320.725 428, 316.002 424.095, 314.307 423.807 C 313.313 423.638, 312.275 423.253, 312 422.951 C 309.036 419.693, 299.461 418.727, 293.038 421.036 M 151.073 433.635 C 145.150 441.165, 149.158 447.301, 161.740 449.964 C 166.822 451.039, 171.832 452.375, 172.874 452.932 C 173.915 453.490, 178.082 454.455, 182.134 455.077 C 186.185 455.699, 191.075 456.865, 193 457.668 C 194.925 458.470, 199.425 459.780, 203 460.578 C 206.575 461.376, 213.844 463.213, 219.153 464.659 C 230.345 467.707, 230.881 467.607, 234.212 461.838 C 240.729 450.551, 239.203 448.725, 222.872 448.267 C 213.722 448.011, 207.896 447.250, 200.500 445.346 C 195 443.929, 187.423 442.150, 183.662 441.391 C 179.901 440.632, 175.557 439.109, 174.008 438.006 C 172.459 436.902, 170.540 436, 169.745 436 C 168.949 436, 166.182 434.875, 163.596 433.500 C 157.421 430.217, 153.730 430.256, 151.073 433.635 M 53.088 436.924 C 51.394 437.997, 49.118 454.693, 49.048 466.566 C 49.021 471.003, 48.586 477.078, 48.080 480.066 C 42.765 511.471, 46.531 524.372, 61.762 526.931 C 65.468 527.554, 70.750 528.898, 73.500 529.918 C 97.238 538.720, 111.052 539.453, 112.762 532 C 113.457 528.975, 114.912 523.350, 115.996 519.500 C 117.080 515.650, 118.660 507.775, 119.508 502 C 120.355 496.225, 121.889 489.025, 122.915 486 C 123.942 482.975, 125.094 478.025, 125.474 475 C 125.855 471.975, 126.794 467.314, 127.561 464.643 C 129.806 456.824, 127.992 454.544, 118.665 453.461 C 115.384 453.080, 110.405 451.700, 107.600 450.394 C 104.795 449.088, 101.375 448.010, 100 447.998 C 98.625 447.987, 93.094 446.649, 87.709 445.025 C 82.324 443.402, 75.245 441.588, 71.977 440.996 C 68.710 440.403, 64.116 439.047, 61.768 437.981 C 57.024 435.828, 55.176 435.603, 53.088 436.924 M 146.066 462.750 C 143.167 465.103, 134 501.158, 134 510.206 C 134 512.353, 133.070 516.152, 131.932 518.649 C 127.977 527.331, 126.692 542.230, 129.758 543.870 C 131.808 544.968, 140.192 547.403, 151.500 550.185 C 155.900 551.268, 162.200 552.979, 165.500 553.988 C 187.366 560.675, 194.992 560.132, 197.492 551.714 C 198.317 548.938, 199.628 545.955, 200.406 545.084 C 201.184 544.213, 202.557 540.950, 203.457 537.834 C 204.357 534.717, 205.747 531.625, 206.547 530.961 C 207.346 530.298, 208 528.956, 208 527.979 C 208 527.002, 209.360 523.618, 211.021 520.459 C 212.683 517.300, 214.539 512.642, 215.144 510.108 C 215.750 507.573, 217.028 504.119, 217.983 502.431 C 220.166 498.572, 224 487.585, 224 485.187 C 224 481.431, 221.421 479.876, 210.470 477.030 C 204.437 475.462, 197.039 473.464, 194.032 472.590 C 191.025 471.715, 187.193 471, 185.517 471 C 183.841 471, 180.875 470.145, 178.925 469.100 C 176.974 468.054, 171.734 466.512, 167.279 465.671 C 162.824 464.831, 157.811 463.436, 156.139 462.572 C 152.172 460.520, 148.738 460.581, 146.066 462.750 M 240.755 489.250 C 239.185 490.457, 237.378 494.792, 232.364 509.383 C 231.063 513.169, 229.147 517.669, 228.107 519.383 C 227.067 521.097, 225.886 524.075, 225.482 526 C 225.079 527.925, 223.942 531.075, 222.954 533 C 208.996 560.220, 208.765 566.605, 221.649 568.938 C 225.032 569.550, 230.986 571.165, 234.881 572.526 C 238.776 573.887, 243.357 575, 245.061 575 C 246.765 575, 250.936 576.086, 254.329 577.413 C 267.222 582.456, 274.017 582.674, 275.471 578.091 C 275.805 577.039, 277.185 575.453, 278.539 574.566 C 279.893 573.680, 281 572.426, 281 571.781 C 281 570.665, 281.722 569.456, 288.580 559.085 C 290.186 556.657, 292.625 552.759, 294 550.424 C 296.611 545.991, 302.922 536.199, 306.710 530.705 C 307.925 528.942, 309.899 525.700, 311.097 523.500 C 312.294 521.300, 314.337 518.228, 315.637 516.673 C 321.256 509.952, 315.763 503.807, 302.447 501.921 C 298.956 501.427, 294.164 500.157, 291.800 499.100 C 284.878 496.005, 252.134 488.107, 245.941 488.039 C 243.984 488.018, 241.650 488.563, 240.755 489.250 M 30.500 617.306 C 3.218 628.161, 0.299 669.948, 26.429 675.582 C 28.118 675.946, 31.300 677.159, 33.500 678.278 C 38.465 680.802, 47.578 681.140, 51.063 678.929 C 52.403 678.078, 55.559 676.614, 58.076 675.675 C 72.519 670.286, 79.637 654.842, 75.595 637.662 C 71.950 622.167, 46.808 610.818, 30.500 617.306 M 191.013 658.279 C 185.358 659.479, 181.688 660.851, 180.013 662.393 C 178.631 663.666, 176.808 664.947, 175.962 665.241 C 169.708 667.411, 164.234 685.775, 166.400 697.317 C 171.802 726.113, 223.185 729.140, 232.425 701.208 C 241.293 674.396, 219.844 652.160, 191.013 658.279" stroke="none" fill="#f28d25" fill-rule="evenodd"/><path d="M 205.763 15.520 C 202.917 17.111, 202.510 18.175, 201.557 26.500 C 201.242 29.250, 200.056 32.762, 198.922 34.305 C 197.302 36.507, 196.669 39.515, 195.975 48.305 C 195.488 54.462, 194.620 61.072, 194.045 62.993 C 192.463 68.281, 192.741 83.136, 194.500 87.346 C 195.325 89.320, 196 93.841, 196 97.391 C 196 102.790, 196.403 104.325, 198.461 106.771 C 199.814 108.379, 201.326 111.496, 201.820 113.696 C 204.320 124.822, 225.892 147.885, 240.706 155.270 C 245.812 157.816, 256.509 163.451, 259 164.909 C 261.525 166.386, 272.758 168.099, 275.465 167.420 C 279.046 166.521, 279.387 163.737, 277.034 154.590 C 275.915 150.240, 275 145.377, 275 143.783 C 275 138.728, 261.966 102.108, 259.838 101.185 C 258.373 100.550, 256.857 94.079, 257.785 92.421 C 258.992 90.263, 274 105.461, 274 108.842 C 274 109.394, 275.058 111.119, 276.351 112.673 C 279.650 116.641, 285.453 130.179, 287.442 138.548 C 288.617 143.493, 290.011 146.553, 292.114 148.803 C 295.342 152.258, 295.663 152.274, 305 149.472 C 317.301 145.780, 326.077 143.892, 329.601 144.181 C 334.594 144.590, 334.833 147.033, 330 148.265 C 328.075 148.756, 325.350 150.247, 323.945 151.579 C 322.540 152.910, 320.996 154, 320.514 154 C 320.033 154, 316.007 156.437, 311.569 159.415 C 307.131 162.394, 302.287 165.380, 300.805 166.051 C 295.636 168.391, 296.987 172.422, 304.168 176.086 C 311.722 179.940, 351.627 180.438, 357.263 176.749 C 358.493 175.944, 362.065 174.540, 365.199 173.629 C 368.334 172.719, 371.177 171.523, 371.517 170.973 C 371.857 170.422, 374.018 169.023, 376.318 167.863 C 392.416 159.746, 408.807 131.416, 401.250 124.771 C 398.957 122.755, 385.686 117, 383.329 117 C 382.320 117, 378.346 116.100, 374.500 115 C 367.119 112.889, 356.043 112.406, 350 113.931 C 336.010 117.462, 330.434 119.202, 329.025 120.478 C 328.131 121.286, 325.503 122.617, 323.184 123.435 C 318.395 125.125, 313.809 128.387, 306.564 135.258 C 298.837 142.585, 296.984 138.114, 300.949 121.710 C 304.626 106.500, 302.343 77.633, 296.846 69.816 C 295.807 68.340, 294.318 65.317, 293.535 63.099 C 290.849 55.487, 274.423 37.751, 265.605 32.944 C 263.897 32.012, 259.800 29.802, 256.500 28.032 C 253.200 26.262, 249.990 24.394, 249.366 23.881 C 243.011 18.650, 211.105 12.532, 205.763 15.520 M 207.633 19.132 C 205.349 21.097, 204.722 22.706, 203.984 28.502 C 203.493 32.351, 202.152 38.200, 201.003 41.500 C 196.785 53.611, 197.177 99.223, 201.541 104.045 C 202.341 104.929, 203.383 107.728, 203.857 110.265 C 204.331 112.802, 205.795 116.240, 207.109 117.906 C 208.424 119.572, 210.850 122.822, 212.500 125.128 C 216.609 130.871, 230.829 144.835, 234.500 146.731 C 236.150 147.584, 238.772 149.343, 240.327 150.641 C 241.881 151.938, 243.958 153, 244.942 153 C 245.925 153, 248 154.012, 249.551 155.250 C 252.558 157.649, 266.836 163.021, 271 163.320 C 273.286 163.485, 273.497 163.158, 273.459 159.500 C 273.372 150.918, 271.993 142.723, 270.124 139.683 C 269.048 137.932, 267.855 134.700, 267.473 132.500 C 266.829 128.796, 264.440 122.773, 256.932 105.920 C 255.319 102.301, 254 98.884, 254 98.325 C 254 97.767, 253.147 96.538, 252.105 95.595 C 251.063 94.652, 249.975 92.895, 249.688 91.690 C 249.400 90.486, 248.496 87.144, 247.677 84.265 C 246.252 79.253, 246.267 79.073, 248.029 80.015 C 249.041 80.557, 250.879 81, 252.113 81 C 253.348 81, 255.840 82.463, 257.652 84.250 C 259.464 86.037, 261.971 88.428, 263.223 89.561 C 268.356 94.208, 274.354 101.758, 276.086 105.750 C 277.099 108.087, 278.411 110, 279 110 C 279.589 110, 280.918 111.975, 281.952 114.389 C 282.987 116.803, 284.302 118.940, 284.874 119.139 C 285.446 119.338, 287.177 122.650, 288.721 126.500 C 290.805 131.699, 292.063 133.577, 293.613 133.800 C 299.486 134.644, 300.307 80.417, 294.518 74.020 C 293.712 73.129, 292.381 70.497, 291.560 68.171 C 289.060 61.085, 279.425 49.032, 267.500 38.074 C 266.400 37.063, 263.819 35.700, 261.764 35.045 C 259.709 34.390, 257.778 33.450, 257.473 32.956 C 256.486 31.360, 239.652 23.915, 234.535 22.812 C 231.804 22.224, 228.354 20.843, 226.867 19.743 C 222.401 16.442, 211.175 16.085, 207.633 19.132 M 343.911 119.411 C 333.084 121.083, 320.540 127.789, 310.572 137.233 C 305.592 141.952, 306.286 142.576, 314.925 141.149 C 333.365 138.104, 350.770 141.628, 344.139 147.065 C 342.841 148.129, 340.991 149, 340.029 149 C 339.066 149, 336.707 150.067, 334.785 151.371 C 332.863 152.676, 329.054 154.486, 326.322 155.393 C 323.589 156.301, 320.486 157.710, 319.427 158.525 C 315.237 161.746, 310.316 165.020, 306.622 167.046 C 296.914 172.367, 331.878 179.129, 347.873 175.024 C 358.361 172.332, 366.666 169.644, 368 168.509 C 368.825 167.807, 371.315 166.321, 373.534 165.206 C 379.055 162.433, 390.465 150.918, 393.778 144.778 C 395.275 142.002, 397.112 138.614, 397.861 137.248 C 401.910 129.859, 400.457 126.034, 393.066 124.629 C 391.177 124.270, 388.792 123.217, 387.766 122.288 C 383.770 118.672, 359.157 117.057, 343.911 119.411 M 134.742 134.796 C 132.847 137.434, 130.541 141.865, 129.619 144.642 C 128.697 147.419, 127.055 151.431, 125.971 153.557 C 124.887 155.683, 124 158.466, 124 159.742 C 124 161.017, 122.918 164.634, 121.596 167.780 C 120.274 170.926, 118.900 175.750, 118.544 178.500 C 116.645 193.147, 114.605 202.273, 112.625 204.978 C 107.267 212.297, 100.261 221.489, 97.820 224.405 C 94.204 228.722, 82 253.087, 82 255.989 C 82 257.264, 80.821 260.800, 79.379 263.847 C 76.448 270.043, 75.412 276.579, 74.393 295.296 C 73.516 311.403, 72.361 312.373, 60.500 306.962 C 49.499 301.943, 38.629 302.044, 33.253 307.214 C 27.963 312.301, 27.910 312.584, 27.318 338.768 C 26.903 357.178, 26.415 363.964, 25.394 365.522 C 24.473 366.927, 24.056 370.534, 24.118 376.555 C 24.169 381.475, 23.719 394.500, 23.119 405.500 C 22.519 416.500, 22.021 436.608, 22.014 450.185 C 22.005 466.141, 21.601 475.865, 20.872 477.685 C 20.252 479.233, 19.826 484.251, 19.924 488.835 C 20.038 494.122, 19.540 498.877, 18.561 501.835 C 17.407 505.328, 17.125 509.390, 17.441 518 C 17.673 524.325, 17.894 530.676, 17.932 532.112 C 18.001 534.745, 22.845 541.753, 25.717 543.374 C 27.481 544.369, 41.494 548.151, 53.851 550.965 C 58.443 552.012, 63.636 553.549, 65.391 554.381 C 67.145 555.213, 71.541 556.367, 75.159 556.946 C 78.777 557.524, 83.709 558.868, 86.119 559.932 C 88.529 560.997, 92.975 562.192, 96 562.587 C 99.025 562.983, 103.366 564.101, 105.646 565.073 C 107.927 566.045, 113.658 567.564, 118.383 568.450 C 123.107 569.335, 129.066 570.957, 131.624 572.053 C 134.183 573.150, 139.072 574.443, 142.488 574.927 C 145.905 575.411, 150.503 576.726, 152.705 577.850 C 154.908 578.973, 159.138 580.185, 162.105 580.542 C 165.072 580.899, 169.948 582.074, 172.940 583.153 C 175.932 584.231, 182.007 585.797, 186.440 586.633 C 190.873 587.468, 196.503 589.032, 198.951 590.108 C 201.398 591.184, 206.193 592.460, 209.605 592.944 C 213.018 593.427, 217.948 594.768, 220.562 595.924 C 223.176 597.081, 227.156 598.288, 229.407 598.608 C 231.658 598.928, 235.362 599.863, 237.637 600.687 C 239.912 601.511, 244.367 602.706, 247.537 603.343 C 255.638 604.969, 256.051 606.183, 251.344 614.521 C 246.472 623.150, 244.272 623.899, 234.261 620.339 C 230.542 619.016, 223 617.020, 217.500 615.902 C 212 614.785, 206.436 613.181, 205.136 612.337 C 203.836 611.494, 199.561 610.367, 195.636 609.831 C 191.711 609.296, 187.150 608.154, 185.500 607.294 C 183.850 606.433, 179.125 604.946, 175 603.989 C 157.039 599.821, 145.137 596.679, 140.258 594.816 C 137.375 593.716, 131.544 592.351, 127.301 591.784 C 122.973 591.206, 118.469 589.961, 117.043 588.949 C 115.644 587.956, 111.800 586.634, 108.500 586.011 C 105.200 585.388, 100.833 584.243, 98.796 583.466 C 96.759 582.689, 92.034 581.565, 88.296 580.969 C 84.558 580.373, 77.675 578.597, 73 577.022 C 68.325 575.448, 62.261 573.856, 59.523 573.484 C 56.786 573.113, 52.914 571.977, 50.919 570.958 C 48.923 569.940, 44.862 568.821, 41.895 568.471 C 38.928 568.122, 34.803 567.197, 32.730 566.418 C 24.963 563.497, 18.587 565.434, 13.079 572.388 C 7 580.063, 12.226 590.957, 22.965 592.993 C 25.945 593.559, 29.446 594.717, 30.746 595.569 C 32.045 596.420, 36.346 597.754, 40.304 598.533 C 44.262 599.312, 50.425 600.864, 54 601.982 C 57.575 603.100, 63.582 604.503, 67.350 605.100 C 71.117 605.697, 75.634 607.031, 77.387 608.066 C 79.141 609.101, 83.841 610.410, 87.833 610.976 C 91.825 611.542, 96.758 612.838, 98.795 613.856 C 100.833 614.874, 105.405 616.263, 108.955 616.944 C 112.505 617.624, 117.680 619.010, 120.455 620.022 C 123.230 621.035, 129.172 622.537, 133.661 623.360 C 138.149 624.183, 143.185 625.562, 144.852 626.423 C 146.519 627.285, 151.079 628.444, 154.987 628.998 C 158.894 629.552, 163.758 630.844, 165.795 631.868 C 167.833 632.892, 171.300 634.049, 173.500 634.438 C 175.700 634.828, 181.325 636.214, 186 637.519 C 190.675 638.823, 198.099 640.413, 202.498 641.051 C 206.896 641.690, 212.071 643.014, 213.998 643.993 C 215.924 644.973, 220.581 646.252, 224.348 646.836 C 228.114 647.420, 232.223 648.571, 233.479 649.395 C 236.791 651.565, 252.198 654.241, 256.611 653.413 C 262.301 652.346, 275 638.371, 275 633.176 C 275 632.614, 276.040 630.881, 277.311 629.327 C 279.309 626.884, 282.633 621.711, 286.589 614.891 C 287.188 613.859, 288.393 612.223, 289.267 611.257 C 290.142 610.291, 291.802 607.475, 292.957 605 C 295.667 599.191, 298.808 594.153, 302.250 590.091 C 303.763 588.307, 305 586.241, 305 585.500 C 305 584.759, 306.027 582.881, 307.282 581.327 C 310.306 577.580, 316.583 567.058, 317.417 564.338 C 317.781 563.149, 319.299 560.584, 320.790 558.638 C 322.280 556.693, 324.625 553.218, 326 550.917 C 327.375 548.616, 329.958 544.880, 331.740 542.616 C 333.522 540.352, 334.985 538.005, 334.990 537.400 C 334.996 536.795, 336.350 534.436, 338 532.159 C 339.650 529.881, 341 527.718, 341 527.353 C 341 526.988, 342.084 525.268, 343.409 523.531 C 344.733 521.794, 346.537 518.827, 347.417 516.936 C 348.296 515.046, 350.025 512.072, 351.258 510.327 C 352.491 508.582, 354.850 504.832, 356.500 501.993 C 358.150 499.154, 362.055 492.917, 365.177 488.132 C 368.299 483.347, 371.163 478.198, 371.542 476.690 C 371.920 475.181, 373.048 473.510, 374.047 472.975 C 375.047 472.440, 376.183 471, 376.572 469.774 C 377.451 467.002, 383.077 458.434, 386.463 454.709 C 387.858 453.174, 389 451.351, 389 450.658 C 389 449.360, 396.720 436.908, 398.101 435.980 C 398.526 435.694, 399.783 433.340, 400.894 430.748 C 403.011 425.810, 405.650 421.709, 410.250 416.215 C 411.763 414.409, 413 412.301, 413 411.531 C 413 410.761, 415.700 406.095, 419 401.161 C 422.300 396.227, 425 391.629, 425 390.943 C 425 390.257, 426.364 387.852, 428.031 385.598 C 429.698 383.344, 432.969 378.575, 435.300 375 C 440.879 366.444, 441.960 366.322, 480 369.945 C 512.929 373.081, 516.092 372.837, 521.950 366.712 C 532.568 355.610, 524.551 344.991, 504.385 343.445 C 501.571 343.229, 498.054 342.591, 496.570 342.026 C 495.085 341.462, 490.412 341.008, 486.185 341.017 C 481.958 341.026, 467.196 340.497, 453.381 339.841 C 422.685 338.384, 417.969 340.171, 411.474 355.715 C 410.692 357.589, 409.115 360.332, 407.972 361.811 C 401.448 370.248, 400 372.419, 400 373.761 C 400 375.532, 393.052 386.161, 388.896 390.750 C 385.459 394.544, 384.290 394.695, 379.261 392 C 377.209 390.900, 374.938 390, 374.215 390 C 368.624 390, 366.035 386.066, 369.054 382.158 C 375.587 373.701, 376.923 371.625, 377.489 369.052 C 377.832 367.487, 378.971 365.431, 380.019 364.483 C 381.067 363.534, 382.454 361.125, 383.101 359.129 C 383.748 357.133, 385.043 354.375, 385.978 353 C 392.297 343.709, 395.776 298.148, 391.645 278.792 C 389.257 267.603, 389.348 267.169, 395.492 260.480 C 398.512 257.191, 400.987 254.005, 400.992 253.400 C 400.996 252.795, 402.312 250.488, 403.916 248.274 C 412.143 236.917, 419.033 216, 414.547 216 C 411.354 216, 407.959 218.530, 402.652 224.861 C 392.609 236.845, 375.291 252.269, 363.742 259.515 C 361.126 261.157, 355.963 264.863, 352.269 267.750 C 348.575 270.638, 345.074 273, 344.488 273 C 343.902 273, 341.865 273.825, 339.961 274.833 C 334.289 277.836, 325.641 282.506, 323.500 283.723 C 319.086 286.230, 295.967 297, 294.999 297 C 294.429 297, 289.134 298.537, 283.232 300.416 C 277.329 302.295, 270.925 304.149, 269 304.537 C 267.075 304.924, 264.175 305.918, 262.557 306.746 C 260.938 307.574, 255.185 308.870, 249.772 309.627 C 244.359 310.383, 238.258 311.705, 236.215 312.563 C 234.166 313.424, 227.437 314.467, 221.209 314.889 C 201.794 316.205, 202.090 319.383, 223.655 341.159 C 228.991 346.548, 231.952 350.268, 231.494 351.009 C 230.374 352.823, 220.347 351.233, 215.021 348.398 C 212.543 347.079, 209.554 346, 208.378 346 C 207.052 346, 204.815 344.260, 202.486 341.417 C 200.420 338.897, 197.281 335.409, 195.509 333.667 C 193.738 331.925, 191.700 329.375, 190.982 328 C 190.264 326.625, 187.837 323.075, 185.588 320.111 C 180.246 313.070, 174.327 303.633, 173.459 300.772 C 173.080 299.522, 171.979 297.600, 171.012 296.500 C 169.101 294.327, 161 278.070, 161 276.409 C 161 275.848, 159.920 273.925, 158.600 272.136 C 157.281 270.347, 155.893 267.243, 155.517 265.238 C 155.141 263.233, 153.985 259.930, 152.948 257.898 C 151.911 255.865, 149.900 248.869, 148.478 242.351 C 147.057 235.833, 145.224 228.025, 144.405 225 C 139.854 208.196, 137.838 170.970, 140.559 154 C 144.476 129.570, 142.703 123.715, 134.742 134.796 M 132.533 145.176 C 132.279 145.904, 131.419 148.300, 130.621 150.500 C 126.960 160.596, 125.825 164.216, 123.096 174.500 C 121.490 180.550, 119.899 188.200, 119.559 191.500 C 118.249 204.226, 118.076 204.691, 112.416 210.724 C 109.437 213.899, 107 216.798, 107 217.166 C 107 217.534, 104.552 220.821, 101.560 224.472 C 98.567 228.122, 95.576 232.772, 94.911 234.804 C 94.247 236.837, 91.896 241.875, 89.687 246 C 85.966 252.950, 83.707 259.268, 78.959 276 C 77.646 280.629, 77.099 286.007, 77.058 294.685 C 76.967 313.912, 74.116 315.584, 53.535 308.480 C 31.551 300.892, 29.365 305.322, 28.598 359 C 28.011 400.119, 27.559 410.583, 26.031 418.500 C 25.174 422.938, 24.467 441.121, 22.291 514.714 C 21.605 537.937, 23.330 541.989, 34.540 543.470 C 43.167 544.610, 50.729 546.567, 71.799 553.111 C 76.914 554.700, 82.410 556, 84.012 556 C 85.615 556, 89.080 556.836, 91.713 557.858 C 94.346 558.880, 98.525 560.016, 101 560.383 C 105.421 561.038, 125.158 566.586, 134 569.659 C 136.475 570.519, 141.875 571.878, 146 572.678 C 150.125 573.479, 155.759 575.004, 158.519 576.067 C 161.280 577.130, 164.716 578, 166.156 578 C 167.596 578, 172.537 579.136, 177.137 580.524 C 181.737 581.912, 189.583 584.103, 194.572 585.394 C 199.562 586.684, 204.674 588.290, 205.931 588.963 C 207.189 589.636, 212.001 590.799, 216.625 591.548 C 221.249 592.296, 226.025 593.604, 227.238 594.454 C 228.452 595.304, 230.357 595.999, 231.473 595.999 C 249.583 595.987, 260.598 604.572, 254.528 613.970 C 252.585 616.979, 250.756 620.193, 250.464 621.113 C 249.282 624.837, 244.539 625.463, 234.675 623.197 C 220.518 619.944, 203.896 615.374, 199.786 613.603 C 197.743 612.723, 192.879 611.550, 188.977 610.997 C 185.075 610.443, 180.529 609.291, 178.875 608.435 C 177.221 607.580, 171.413 606.032, 165.969 604.994 C 160.525 603.957, 155.193 602.639, 154.122 602.065 C 153.050 601.492, 148.283 600.115, 143.528 599.007 C 138.773 597.898, 133.653 596.355, 132.150 595.578 C 130.647 594.800, 125.930 593.679, 121.667 593.087 C 117.405 592.494, 112.559 591.306, 110.899 590.448 C 109.239 589.589, 104.195 588.062, 99.690 587.055 C 95.186 586.047, 87.512 584.048, 82.638 582.612 C 77.764 581.175, 73.039 579.990, 72.138 579.978 C 71.237 579.966, 68.526 579.061, 66.114 577.966 C 63.702 576.871, 58.527 575.483, 54.614 574.880 C 50.701 574.277, 46.600 573.304, 45.500 572.719 C 42.388 571.062, 32.043 569.074, 26.332 569.035 C 8.784 568.916, 10.284 587.559, 28.185 592.069 C 38.537 594.677, 46.651 596.798, 61 600.648 C 67.875 602.492, 74.049 604.001, 74.720 604 C 75.392 604, 78.326 605.091, 81.241 606.424 C 84.156 607.758, 89.457 609.168, 93.021 609.558 C 96.584 609.948, 100.733 610.891, 102.240 611.654 C 103.747 612.417, 109.372 613.939, 114.740 615.036 C 120.108 616.133, 127.875 618.112, 132 619.433 C 136.125 620.754, 141.300 622.131, 143.500 622.492 C 145.700 622.853, 148.535 623.815, 149.801 624.630 C 151.066 625.446, 155.840 626.718, 160.410 627.458 C 164.979 628.197, 170.059 629.496, 171.699 630.344 C 173.338 631.192, 177.789 632.420, 181.590 633.074 C 185.390 633.727, 192.718 635.553, 197.873 637.131 C 203.028 638.709, 208.570 640, 210.188 640 C 211.806 640, 215.238 640.897, 217.815 641.994 C 220.392 643.090, 225.650 644.616, 229.500 645.384 C 233.350 646.152, 240.217 647.763, 244.761 648.964 C 257.882 652.432, 263.122 649.094, 272.879 631.051 C 273.638 629.648, 275.073 627.600, 276.067 626.500 C 277.062 625.400, 278.708 622.700, 279.725 620.500 C 280.742 618.300, 283.807 613.029, 286.537 608.788 C 301.449 585.615, 305.227 579.520, 309.961 571 C 315.290 561.408, 316.511 559.410, 318.872 556.420 C 321.143 553.546, 329.105 541.022, 334 532.627 C 338.682 524.598, 340.498 521.750, 342.613 519.124 C 343.775 517.681, 345.044 515.485, 345.432 514.245 C 345.821 513.004, 347.281 510.631, 348.679 508.970 C 350.076 507.310, 353.253 502.025, 355.738 497.226 C 358.224 492.427, 361.032 487.600, 361.979 486.500 C 362.926 485.400, 365.431 481.575, 367.547 478 C 369.662 474.425, 372.181 470.597, 373.143 469.493 C 374.105 468.389, 375.484 466.139, 376.208 464.493 C 377.967 460.491, 382.637 453.343, 384.071 452.456 C 384.705 452.064, 386.304 449.439, 387.625 446.622 C 388.946 443.805, 391.859 439.025, 394.098 436 C 396.338 432.975, 398.845 428.961, 399.670 427.079 C 400.495 425.198, 403.298 420.473, 405.899 416.579 C 408.500 412.686, 411.210 408.052, 411.921 406.283 C 412.633 404.514, 413.887 402.508, 414.709 401.827 C 416.878 400.026, 422.851 390.441, 423.558 387.627 C 423.890 386.303, 425.475 383.961, 427.081 382.422 C 428.686 380.884, 430 378.955, 430 378.136 C 430 377.317, 431.652 374.248, 433.671 371.316 C 439.119 363.406, 442.760 362.818, 466.500 366.011 C 497.653 370.200, 515.946 369.689, 520.563 364.500 C 529.090 354.915, 522.528 347.963, 503.917 346.866 C 496.538 346.430, 486.450 345.607, 481.500 345.035 C 469.379 343.635, 444.379 342.034, 434.330 342.015 C 425.381 341.999, 418.656 347.133, 413.894 357.618 C 412.865 359.883, 411.293 362.342, 410.400 363.083 C 408.312 364.816, 401 376.047, 401 377.521 C 401 378.138, 399.663 380.411, 398.028 382.572 C 396.393 384.732, 395.043 387.010, 395.028 387.634 C 394.980 389.598, 387.096 396.001, 384.747 395.983 C 378.635 395.936, 361.241 389.816, 359.579 387.128 C 359.273 386.633, 361.380 383.492, 364.261 380.148 C 371.688 371.531, 373.619 368.846, 374.439 366 C 375.175 363.445, 376.866 359.446, 380.062 352.707 C 381.051 350.621, 382.168 347.471, 382.545 345.707 C 382.922 343.943, 383.582 342.050, 384.012 341.500 C 388.722 335.465, 389.684 305.799, 386.318 270.409 C 385.841 265.395, 385.918 265.223, 391.495 258.909 C 396.959 252.724, 398.876 249.684, 404.605 238.112 C 409.924 227.370, 407.047 221.274, 401.615 231.778 C 400.130 234.649, 391.295 243.328, 387 246.133 C 385.625 247.031, 382.489 249.730, 380.032 252.130 C 374.600 257.435, 370.640 260.421, 365.957 262.743 C 362.045 264.683, 357.071 268.296, 353.563 271.745 C 352.307 272.980, 349.317 274.682, 346.918 275.529 C 344.520 276.375, 341.644 277.880, 340.528 278.872 C 339.413 279.864, 337.052 281.248, 335.283 281.946 C 333.514 282.644, 331.542 283.847, 330.901 284.619 C 330.260 285.391, 327.883 286.907, 325.618 287.987 C 323.353 289.067, 320.825 290.398, 320 290.946 C 319.175 291.494, 315.806 292.968, 312.514 294.221 C 304.946 297.102, 305.254 298.487, 313.478 298.548 C 321.358 298.607, 321.591 298.818, 320.013 304.452 C 318.450 310.035, 308.996 315.441, 308.999 310.750 C 309 310.337, 308.361 310, 307.579 310 C 306.798 310, 305.878 308.719, 305.534 307.154 C 304.117 300.704, 298.212 299.058, 290.539 302.977 C 288.360 304.090, 285.828 305, 284.912 305 C 283.995 305, 278.803 306.372, 273.373 308.050 C 267.943 309.727, 259.944 311.550, 255.598 312.100 C 251.251 312.650, 246.076 313.780, 244.098 314.609 C 240.925 315.940, 225.904 317.844, 217.500 317.982 C 212.183 318.068, 211.542 319.181, 214.013 324.026 C 216.299 328.507, 229.110 342.014, 234.773 345.914 C 237.472 347.774, 242 354.380, 242 356.460 C 242 357.658, 233.102 356.898, 230.206 355.453 C 228.500 354.602, 224.353 353.463, 220.989 352.921 C 217.625 352.379, 213.221 351.050, 211.201 349.968 C 209.182 348.886, 206.934 348, 206.206 348 C 205.479 348, 202.997 345.875, 200.692 343.278 C 198.386 340.681, 195.374 337.383, 193.999 335.950 C 191.483 333.329, 187.002 327.495, 182.514 321 C 181.184 319.075, 178.536 315.250, 176.630 312.500 C 174.723 309.750, 172.403 305.587, 171.473 303.250 C 170.543 300.913, 169.423 299, 168.983 299 C 167.798 299, 161.578 287.279, 159.605 281.327 C 158.662 278.482, 157.241 275.615, 156.448 274.957 C 155.655 274.299, 154.371 271.622, 153.595 269.008 C 152.819 266.395, 151.468 262.871, 150.592 261.178 C 149.717 259.485, 148.501 255.715, 147.891 252.800 C 147.281 249.885, 145.965 246.150, 144.967 244.500 C 143.968 242.850, 142.831 238.575, 142.439 235 C 142.047 231.425, 140.941 226.475, 139.980 224 C 137.444 217.464, 135.719 191.404, 136.142 166.016 C 136.490 145.145, 135.180 137.580, 132.533 145.176 M 304.235 316.060 C 298.345 317.221, 297.839 317.694, 298.028 321.852 C 298.119 323.858, 298.150 325.996, 298.097 326.601 C 298.044 327.207, 295.188 330.555, 291.750 334.041 C 285.692 340.184, 285.577 340.397, 287.995 340.983 C 291.368 341.801, 291.988 345, 288.773 345 C 287.468 345, 285.906 344.506, 285.302 343.902 C 284.189 342.789, 280.316 345.536, 275.662 350.738 C 274.376 352.176, 271.996 353.197, 269.005 353.594 C 262.289 354.485, 258.308 361.372, 263.808 362.584 C 265.289 362.911, 268.525 363.770, 271 364.495 C 279.386 366.949, 280.278 367.039, 278.822 365.286 C 278.112 364.430, 277.507 363.227, 277.479 362.614 C 277.451 362.002, 276.571 359.808, 275.524 357.740 C 274.116 354.959, 273.912 353.688, 274.743 352.857 C 276.480 351.120, 279 352.655, 279 355.450 C 279 357.269, 279.663 358.128, 281.405 358.566 C 282.728 358.898, 284.831 360.256, 286.079 361.585 C 288.811 364.492, 293.948 364.820, 296.287 362.235 C 298.590 359.691, 300.184 351.927, 298.757 350.207 C 297.278 348.425, 299.374 347.036, 303.576 347.015 C 308.847 346.989, 315.974 332.109, 310.784 331.964 C 309.195 331.920, 315.041 327.012, 316.691 327.005 C 318.843 326.996, 319.184 324.997, 317.894 319.962 C 316.480 314.445, 314.825 313.972, 304.235 316.060 M 58.830 335.035 C 54.055 337.821, 52.187 352.946, 51.422 395 C 50.954 420.751, 51.770 422.288, 67.317 424.925 C 71.066 425.561, 76.253 426.917, 78.845 427.939 C 81.436 428.960, 87.560 430.546, 92.454 431.463 C 97.347 432.380, 102.566 433.758, 104.050 434.526 C 105.534 435.293, 109.672 436.388, 113.244 436.959 C 116.816 437.530, 121.507 438.620, 123.667 439.382 C 139.955 445.129, 141.577 423.557, 125.952 409 C 109.319 393.505, 101.196 383.356, 95.136 370.500 C 93.581 367.200, 91.564 363.882, 90.654 363.128 C 89.744 362.373, 88.998 361.248, 88.996 360.628 C 88.994 360.007, 87.646 356.800, 86 353.500 C 84.354 350.200, 83.006 346.813, 83.004 345.973 C 82.990 340.570, 64.039 331.996, 58.830 335.035 M 58.497 339.005 C 57.481 340.649, 56.027 357.164, 55.019 378.500 C 54.500 389.500, 53.608 402.016, 53.037 406.314 C 51.848 415.256, 52.583 417.660, 56.779 418.561 C 58.275 418.882, 61.075 419.786, 63 420.570 C 64.925 421.354, 69.875 422.681, 74 423.520 C 78.125 424.359, 84.875 426.107, 89 427.404 C 93.125 428.701, 98.454 430.053, 100.842 430.408 C 103.230 430.763, 106.830 431.869, 108.842 432.866 C 121.030 438.905, 129.862 437.658, 132.927 429.467 C 135.808 421.765, 135.640 421.065, 129.732 416.130 C 120.261 408.219, 107.538 395.806, 105.501 392.490 C 101.675 386.261, 98.263 381.463, 96.790 380.241 C 95.976 379.565, 94.474 377.096, 93.453 374.756 C 92.432 372.415, 90.247 368.487, 88.597 366.027 C 86.948 363.567, 84.138 357.524, 82.355 352.598 C 80.569 347.668, 78.300 343.176, 77.306 342.605 C 71.024 338.998, 59.826 336.855, 58.497 339.005 M 281.013 394.788 C 273.767 400.656, 278.891 407.409, 294.891 413.079 C 297.856 414.130, 300.823 415.438, 301.483 415.986 C 302.143 416.534, 305.792 418.062, 309.592 419.383 C 313.391 420.703, 320.227 423.155, 324.783 424.832 C 332.587 427.705, 343.839 430.417, 352.224 431.445 C 375.230 434.266, 343.615 437.550, 318 435 C 307.586 433.963, 299.119 434.991, 293 438.035 C 291.075 438.992, 283.288 441.422, 275.695 443.434 C 259.725 447.667, 257.245 448.653, 256.476 451.076 C 256.166 452.051, 254.855 454.409, 253.561 456.315 C 246.628 466.531, 248.306 471.744, 259.641 475.205 C 277.410 480.631, 289.776 483.991, 297.235 485.418 C 301.430 486.221, 306.177 487.557, 307.785 488.389 C 319.235 494.310, 331.075 492.535, 335.515 484.232 C 336.907 481.629, 340.722 475.225, 343.993 470 C 347.263 464.775, 351.153 458.475, 352.636 456 C 354.119 453.525, 356.179 450.548, 357.215 449.384 C 358.263 448.205, 359.572 444.401, 360.169 440.796 C 361.151 434.875, 361.539 434.165, 364.733 432.445 C 372.483 428.271, 375.295 419.944, 369.750 417.585 C 362.013 414.293, 358.025 412.937, 350.500 411.038 C 346.100 409.928, 336.650 407.418, 329.500 405.459 C 322.350 403.500, 312.450 401.018, 307.500 399.943 C 302.550 398.868, 296.475 397.140, 294 396.103 C 286.523 392.970, 283.621 392.676, 281.013 394.788 M 281.434 398.407 C 280.661 401.487, 282.368 404.677, 285.249 405.536 C 289.498 406.804, 303.501 413.300, 305.762 415.053 C 307.005 416.017, 310.380 417.355, 313.262 418.025 C 316.143 418.696, 319.850 420.034, 321.500 421 C 323.150 421.966, 326.975 423.318, 330 424.006 C 333.025 424.694, 338.875 426.286, 343 427.545 C 356.430 431.643, 362.078 431.748, 366.370 427.980 C 372.188 422.872, 370.683 418, 363.288 418 C 361.724 418, 359.523 417.354, 358.396 416.565 C 357.269 415.775, 352.387 414.387, 347.547 413.481 C 342.708 412.574, 335.467 410.791, 331.458 409.518 C 327.448 408.245, 322.217 406.879, 319.834 406.482 C 317.450 406.085, 313.754 404.875, 311.620 403.794 C 309.487 402.712, 304.762 401.365, 301.120 400.801 C 297.479 400.236, 292.830 398.925, 290.790 397.887 C 285.538 395.216, 282.188 395.402, 281.434 398.407 M 151.073 433.635 C 145.150 441.165, 149.158 447.301, 161.740 449.964 C 166.822 451.039, 171.832 452.375, 172.874 452.932 C 173.915 453.490, 178.082 454.455, 182.134 455.077 C 186.185 455.699, 191.075 456.865, 193 457.668 C 194.925 458.470, 199.425 459.780, 203 460.578 C 206.575 461.376, 213.844 463.213, 219.153 464.659 C 230.345 467.707, 230.881 467.607, 234.212 461.838 C 240.729 450.551, 239.203 448.725, 222.872 448.267 C 213.722 448.011, 207.896 447.250, 200.500 445.346 C 195 443.929, 187.423 442.150, 183.662 441.391 C 179.901 440.632, 175.557 439.109, 174.008 438.006 C 172.459 436.902, 170.540 436, 169.745 436 C 168.949 436, 166.182 434.875, 163.596 433.500 C 157.421 430.217, 153.730 430.256, 151.073 433.635 M 153.054 435.435 C 148.626 440.771, 154.344 446.110, 166.500 447.987 C 170.549 448.613, 174.714 449.950, 176.379 451.160 C 178.358 452.597, 181.799 453.529, 187.379 454.140 C 191.846 454.628, 197.300 455.741, 199.500 456.612 C 201.700 457.483, 208.450 459.290, 214.500 460.627 C 220.550 461.964, 226.477 463.315, 227.672 463.630 C 229.370 464.078, 230.188 463.538, 231.422 461.151 C 233.326 457.470, 233.532 451.030, 231.750 450.930 C 231.063 450.891, 226 450.670, 220.500 450.438 C 203.801 449.735, 178.574 444.048, 170.878 439.252 C 168.894 438.016, 165.850 436.720, 164.114 436.373 C 162.379 436.026, 160.716 435.350, 160.420 434.871 C 159.555 433.471, 154.353 433.869, 153.054 435.435 M 53.088 436.924 C 51.394 437.997, 49.118 454.693, 49.048 466.566 C 49.021 471.003, 48.586 477.078, 48.080 480.066 C 42.765 511.471, 46.531 524.372, 61.762 526.931 C 65.468 527.554, 70.750 528.898, 73.500 529.918 C 97.238 538.720, 111.052 539.453, 112.762 532 C 113.457 528.975, 114.912 523.350, 115.996 519.500 C 117.080 515.650, 118.660 507.775, 119.508 502 C 120.355 496.225, 121.889 489.025, 122.915 486 C 123.942 482.975, 125.094 478.025, 125.474 475 C 125.855 471.975, 126.794 467.314, 127.561 464.643 C 129.806 456.824, 127.992 454.544, 118.665 453.461 C 115.384 453.080, 110.405 451.700, 107.600 450.394 C 104.795 449.088, 101.375 448.010, 100 447.998 C 98.625 447.987, 93.094 446.649, 87.709 445.025 C 82.324 443.402, 75.245 441.588, 71.977 440.996 C 68.710 440.403, 64.116 439.047, 61.768 437.981 C 57.024 435.828, 55.176 435.603, 53.088 436.924 M 302.500 437.220 C 300.300 437.801, 297.357 439.078, 295.961 440.056 C 294.564 441.035, 290.694 442.543, 287.360 443.407 C 284.026 444.271, 279.768 445.603, 277.899 446.368 C 276.030 447.133, 271.800 448.081, 268.500 448.476 C 261.834 449.272, 254.039 455.596, 253.965 460.268 C 253.945 461.495, 253.286 463.625, 252.500 465 C 250.157 469.099, 252.001 472, 256.948 472 C 258.492 472, 264.018 473.312, 269.229 474.916 C 274.440 476.521, 280.908 478.151, 283.602 478.539 C 286.296 478.927, 290.341 480.069, 292.591 481.075 C 294.841 482.082, 299.341 483.342, 302.591 483.876 C 305.841 484.410, 310.525 485.736, 313 486.824 C 323.691 491.521, 328.859 490.607, 332.503 483.374 C 333.576 481.243, 336.894 475.675, 339.876 471 C 349.465 455.966, 352.284 451.573, 354.666 447.946 C 359.105 441.187, 356.505 439, 344.027 438.999 C 336.584 438.998, 320.864 437.882, 310 436.582 C 308.075 436.352, 304.700 436.639, 302.500 437.220 M 53.646 440.269 C 52.102 441.399, 51.804 444.950, 50.942 472.519 C 50.409 489.559, 49.525 506.573, 48.976 510.329 C 48.428 514.085, 48.209 517.530, 48.491 517.985 C 49.464 519.560, 61.781 524.787, 66.132 525.472 C 68.534 525.850, 75.225 527.413, 81 528.945 C 109.296 536.450, 109.211 536.455, 110.934 527.253 C 111.526 524.089, 113.182 516.775, 114.614 511 C 116.046 505.225, 117.654 496.675, 118.188 492 C 118.827 486.396, 119.938 482.137, 121.448 479.500 C 123.047 476.708, 123.946 473.048, 124.427 467.379 C 125.353 456.449, 125.308 456.406, 111.262 454.542 C 108.931 454.233, 105.331 453.125, 103.262 452.079 C 101.193 451.033, 95 449.402, 89.500 448.453 C 84 447.504, 78.356 446.150, 76.958 445.445 C 75.559 444.740, 71.509 443.644, 67.958 443.009 C 64.406 442.375, 60.503 441.213, 59.285 440.428 C 56.568 438.676, 55.853 438.656, 53.646 440.269 M 146.066 462.750 C 143.167 465.103, 134 501.158, 134 510.206 C 134 512.353, 133.070 516.152, 131.932 518.649 C 127.977 527.331, 126.692 542.230, 129.758 543.870 C 131.808 544.968, 140.192 547.403, 151.500 550.185 C 155.900 551.268, 162.200 552.979, 165.500 553.988 C 187.366 560.675, 194.992 560.132, 197.492 551.714 C 198.317 548.938, 199.628 545.955, 200.406 545.084 C 201.184 544.213, 202.557 540.950, 203.457 537.834 C 204.357 534.717, 205.747 531.625, 206.547 530.961 C 207.346 530.298, 208 528.956, 208 527.979 C 208 527.002, 209.360 523.618, 211.021 520.459 C 212.683 517.300, 214.539 512.642, 215.144 510.108 C 215.750 507.573, 217.028 504.119, 217.983 502.431 C 220.166 498.572, 224 487.585, 224 485.187 C 224 481.431, 221.421 479.876, 210.470 477.030 C 204.437 475.462, 197.039 473.464, 194.032 472.590 C 191.025 471.715, 187.193 471, 185.517 471 C 183.841 471, 180.875 470.145, 178.925 469.100 C 176.974 468.054, 171.734 466.512, 167.279 465.671 C 162.824 464.831, 157.811 463.436, 156.139 462.572 C 152.172 460.520, 148.738 460.581, 146.066 462.750 M 148.369 465.435 C 146.259 466.932, 144.315 473.950, 141.009 491.998 C 140.355 495.573, 139.191 500.298, 138.424 502.498 C 137.657 504.699, 137.023 508.652, 137.015 511.282 C 137 515.961, 133.747 527.568, 131.921 529.450 C 127.018 534.506, 131.612 543.532, 139.500 544.341 C 142.800 544.680, 147.750 545.818, 150.500 546.871 C 153.250 547.923, 158.650 549.278, 162.500 549.881 C 166.350 550.484, 172.200 552.097, 175.500 553.465 C 187.747 558.542, 194.787 556.774, 196.358 548.227 C 196.689 546.427, 198.093 543.285, 199.480 541.245 C 200.866 539.205, 202 536.715, 202 535.711 C 202 534.708, 204.303 528.625, 207.118 522.194 C 209.933 515.762, 213.039 507.728, 214.022 504.340 C 215.004 500.951, 216.763 496.887, 217.931 495.307 C 224.327 486.656, 221.728 482.738, 207.500 479.583 C 201.450 478.242, 194.711 476.388, 192.524 475.464 C 190.337 474.540, 185.953 473.417, 182.781 472.969 C 179.610 472.521, 175.549 471.411, 173.758 470.503 C 171.966 469.596, 166.900 468.026, 162.500 467.016 C 158.100 466.006, 153.600 464.897, 152.500 464.552 C 151.367 464.196, 149.576 464.579, 148.369 465.435 M 240.755 489.250 C 239.185 490.457, 237.378 494.792, 232.364 509.383 C 231.063 513.169, 229.147 517.669, 228.107 519.383 C 227.067 521.097, 225.886 524.075, 225.482 526 C 225.079 527.925, 223.942 531.075, 222.954 533 C 208.996 560.220, 208.765 566.605, 221.649 568.938 C 225.032 569.550, 230.986 571.165, 234.881 572.526 C 238.776 573.887, 243.357 575, 245.061 575 C 246.765 575, 250.936 576.086, 254.329 577.413 C 267.222 582.456, 274.017 582.674, 275.471 578.091 C 275.805 577.039, 277.185 575.453, 278.539 574.566 C 279.893 573.680, 281 572.426, 281 571.781 C 281 570.665, 281.722 569.456, 288.580 559.085 C 290.186 556.657, 292.625 552.759, 294 550.424 C 296.611 545.991, 302.922 536.199, 306.710 530.705 C 307.925 528.942, 309.899 525.700, 311.097 523.500 C 312.294 521.300, 314.337 518.228, 315.637 516.673 C 321.256 509.952, 315.763 503.807, 302.447 501.921 C 298.956 501.427, 294.164 500.157, 291.800 499.100 C 284.878 496.005, 252.134 488.107, 245.941 488.039 C 243.984 488.018, 241.650 488.563, 240.755 489.250 M 244 491.277 C 242.197 492.176, 240.978 494.192, 239.629 498.511 C 238.600 501.805, 236.687 506.726, 235.379 509.446 C 234.070 512.167, 233 515.037, 233 515.825 C 233 516.612, 231.698 519.561, 230.106 522.378 C 228.514 525.195, 226.879 529.075, 226.473 531 C 226.067 532.925, 223.920 538.325, 221.702 543 C 219.484 547.675, 217.028 552.850, 216.243 554.500 C 212.657 562.044, 217.631 566.307, 232.380 568.328 C 234.924 568.677, 238.740 569.847, 240.858 570.928 C 242.977 572.008, 247.138 573.210, 250.105 573.597 C 253.072 573.985, 258.323 575.359, 261.773 576.651 C 265.223 577.943, 268.856 579, 269.846 579 C 271.683 579, 280 569.657, 280 567.594 C 280 566.969, 282.700 562.464, 286 557.583 C 289.300 552.701, 292 548.168, 292 547.509 C 292 546.849, 292.879 545.514, 293.953 544.542 C 295.028 543.570, 297.809 539.563, 300.133 535.637 C 302.457 531.712, 305.126 527.600, 306.063 526.500 C 306.999 525.400, 308.546 522.925, 309.500 521 C 310.454 519.075, 312.122 516.528, 313.207 515.339 C 318.269 509.798, 313.187 507.089, 284.500 500.037 C 272.950 497.197, 261.250 494.062, 258.500 493.071 C 251.060 490.389, 246.833 489.866, 244 491.277 M 33.285 614.001 C 1.986 622.204, -6.026 669.472, 22.671 676.628 C 24.227 677.016, 27.480 678.383, 29.899 679.667 C 61.742 696.558, 96.471 649.377, 70.500 624.509 C 58.837 613.341, 47.750 610.210, 33.285 614.001 M 30.500 617.306 C 3.218 628.161, 0.299 669.948, 26.429 675.582 C 28.118 675.946, 31.300 677.159, 33.500 678.278 C 38.465 680.802, 47.578 681.140, 51.063 678.929 C 52.403 678.078, 55.559 676.614, 58.076 675.675 C 72.519 670.286, 79.637 654.842, 75.595 637.662 C 71.950 622.167, 46.808 610.818, 30.500 617.306 M 187.603 656.118 C 157.570 667.356, 153.084 710.640, 181.033 719.511 C 182.369 719.934, 184.619 721.137, 186.035 722.184 C 194.488 728.433, 217.608 723.665, 227.617 713.608 C 254.376 686.718, 223.682 642.618, 187.603 656.118 M 191.013 658.279 C 185.358 659.479, 181.688 660.851, 180.013 662.393 C 178.631 663.666, 176.808 664.947, 175.962 665.241 C 169.708 667.411, 164.234 685.775, 166.400 697.317 C 171.802 726.113, 223.185 729.140, 232.425 701.208 C 241.293 674.396, 219.844 652.160, 191.013 658.279" stroke="none" fill="#6c982c" fill-rule="evenodd"/></svg>